<?xml version="1.0" encoding="UTF-8"?>
<!DOCTYPE svg PUBLIC "-//W3C//DTD SVG 1.1//EN" "http://www.w3.org/Graphics/SVG/1.1/DTD/svg11.dtd">
<!-- Creator: CorelDRAW -->
<svg xmlns="http://www.w3.org/2000/svg" xml:space="preserve" width="152.88mm" height="132.639mm" version="1.1" style="shape-rendering:geometricPrecision; text-rendering:geometricPrecision; image-rendering:optimizeQuality; fill-rule:evenodd; clip-rule:evenodd"
viewBox="0 0 6005.2 5210.13"
 xmlns:xlink="http://www.w3.org/1999/xlink"
 xmlns:xodm="http://www.corel.com/coreldraw/odm/2003">
 <defs>
  <style type="text/css">
   <![CDATA[
    .fil1 {fill:#2B2B2A;fill-rule:nonzero}
    .fil0 {fill:black;fill-rule:nonzero}
   ]]>
  </style>
 </defs>
 <g id="Katman_x0020_1">
  <metadata id="CorelCorpID_0Corel-Layer"/>
  <g id="_38723175456">
   <path class="fil0" d="M1489.48 240.95c466.19,-149.19 954.74,-217.36 1442.91,-237.66 475.51,-15.46 953.99,22.91 1418.51,127.96 -41.35,19.93 -79.9,62.58 -129.26,49.36 -252,-42.47 -506.42,-73.01 -761.59,-88.1 -459.11,-28.87 -920.84,5.59 -1373.62,84.74 -319.05,60.72 -632.52,151.24 -935.18,269.7 -27.01,477.18 83.63,957.16 292.05,1385.55 189.42,395.23 474.95,741.85 818.4,1013.41 238.4,187.18 501.77,342.9 777.24,469.17 464.15,-230.02 895.14,-543.68 1215.12,-954.74 289.81,-363.94 498.04,-795.12 582.61,-1253.86 34.46,-15.65 69.1,-30.73 103.93,-46.01 -77.67,531.2 -323.15,1030.17 -668.28,1438.62 -331.35,398.58 -763.46,703.67 -1228.35,927.36 -489.29,-220.52 -948.59,-528.22 -1293.35,-943.75 -484.64,-571.43 -734.21,-1333.21 -690.07,-2080.64 138.39,-65.19 283.66,-113.8 428.94,-160.92l0 -0.18z"/>
   <path class="fil0" d="M1232.82 493.33c507.17,-210.47 1056.06,-303.22 1602.53,-330.42 432.86,-17.13 869.25,8.01 1293.72,97.22 -65.56,14.34 -132.61,35.58 -200.22,23.28 -500.28,-69.66 -1009.5,-79.34 -1511.08,-17.51 -383.68,38.18 -760.29,134.29 -1119.2,273.79 7.26,371.02 80.46,742.78 231.88,1082.51 105.61,223.13 238.41,435.83 411.44,612.96 227.98,233.19 504.19,412.92 790.27,566.77 100.39,54.76 207.49,96.48 314.02,137.64 238.22,-113.62 465.26,-249.4 680.39,-402.31 204.32,-148.07 390.39,-322.21 542.93,-523.56 162.6,-221.46 284.22,-472.9 362.45,-736.08 12.66,-35.58 47.49,-55.69 73.38,-81.02 -31.48,228.53 -127.03,442.54 -233.56,645.18 -322.59,579.99 -841.5,1035.94 -1430.43,1333.58 -530.27,-243.43 -1012.1,-614.45 -1338.42,-1102.81 -320.73,-458.75 -471.04,-1023.09 -469.92,-1579.44l-0.18 0.19z"/>
  </g>
  <g id="_38723174528">
   <path class="fil0" d="M5280.12 142.24c81.77,-35.01 164.84,-66.86 248.09,-98.53 -53.64,108.77 -114.17,214.57 -187.18,311.42 -34.46,49.92 -97.04,63.89 -148.26,89.59 -220.71,91.45 -448.5,164.84 -677.04,234.12 -503.07,157.76 -1029.8,230.95 -1555.97,246.6 -123.67,0.56 -247.16,-3.72 -370.46,7.82 34.83,6.52 70.59,0.75 105.98,3.54 271.56,30.92 545.72,24.03 818.59,18.44 297.45,-16.76 592.48,-60.72 886.2,-110.26 265.97,-49.92 533.43,-99.83 790.65,-185.69 -88.47,110.26 -177.69,222.01 -286.83,313.09 -28.31,24.59 -62.77,41.35 -99.83,46.75 -348.3,54.39 -701.81,65.75 -1053.83,62.39 -249.77,-2.24 -499.35,-20.67 -748.18,-43.58 -123.67,-10.99 -244.93,-38.55 -367.67,-54.39 321.85,96.11 656.36,139.88 989.57,173.96 346.06,24.77 693.61,19.18 1040.04,4.84 -89.96,59.04 -181.04,116.97 -275.47,168.56 -33.53,21.6 -74.5,13.23 -111.75,12.48 -460.42,-31.29 -915.25,-116.6 -1364.68,-218.66 -97.22,-22.54 -190.72,-61.65 -290.56,-72.27 120.88,32.97 234.68,86.42 353.32,125.35 163.72,54.39 328.37,108.4 496.18,149.19 229.09,49.54 457.81,100.95 689.14,139.88 -106.16,46.01 -212.14,95.36 -324.64,123.11 -296.89,-82.88 -577.39,-214.75 -861.61,-332.09 -120.32,-46.75 -232.82,-111.2 -354.07,-155.52 192.22,100.95 377.35,214.57 569.56,315.51 137.27,76.37 282.36,138.02 415.35,221.83 -60.72,14.16 -121.44,28.5 -182.16,42.09 -204.51,-138.2 -416.84,-265.04 -615.76,-411.25 94.62,76.55 177.5,166.33 269.7,245.86 76.92,66.12 152.73,133.73 228.16,201.71 -46.94,21.05 -94.43,41.16 -141.37,62.02 -95.92,-138.39 -222.76,-249.95 -332.84,-376.42 43.21,61.46 90.15,123.67 104.67,199.11 10.62,59.6 7.26,120.5 5.59,180.85 -96.48,-150.49 -166.7,-319.05 -289.81,-451.11 -112.87,-119.57 -249.77,-235.24 -418.32,-257.96 -28.5,-3.72 -56.81,-7.45 -84.74,-13.23 41.16,-20.12 89.21,-19.18 130.19,-39.67 42.65,-29.99 61.46,-81.39 88.47,-124.23 37.81,-11.55 76.18,-21.98 113.24,-36.13 -72.45,1.86 -144.53,13.97 -214.56,31.66 -94.62,24.03 -168.93,92.38 -260.57,123.49 -65.19,29.43 -137.83,14.71 -206.56,14.71 71.52,-77.3 134.48,-167.07 228.35,-219.41 175.82,-105.23 375.86,-160.37 571.98,-213.64 -94.25,49.54 -195.75,86.79 -281.61,150.86 124.79,-55.5 249.95,-111.2 380.33,-153.47 227.05,-75.25 464.15,-110.63 699.01,-150.68 41.54,-8.19 83.07,-17.88 125.72,-19.37 -147.51,72.27 -311.23,99.46 -466.38,150.68 -185.69,60.9 -382.01,77.67 -569.19,132.24 147.51,-18.07 296.52,-21.23 444.22,-39.3 428.39,-54.76 844.66,-183.83 1243.43,-347.18 145.28,-56.43 277.89,-139.5 414.79,-213.07 -32.78,82.51 -71.15,162.6 -114.36,240.27 -12.29,19.56 -22.72,44.14 -46.75,51.41 -273.61,110.63 -556.15,199.29 -844.48,263.18 -295.96,72.27 -598.06,119.39 -901.47,146.77 647.05,-17.13 1289.62,-152.36 1892.53,-387.22 236.35,-91.64 472.9,-182.16 706.46,-280.69l-0.55 -0.35z"/>
   <path class="fil0" d="M2222.39 992.12c16.02,-24.96 22.35,-56.25 47.68,-74.5 -6.15,26.26 -2.42,60.72 -25.7,79.72 -26.07,18.63 -59.04,22.54 -89.4,29.99 22.17,-11.92 47.31,-19.18 67.43,-35.01l-0 -0.18z"/>
   <path class="fil0" d="M1731.23 1085.8c106.16,-44.33 212.52,20.86 303.78,70.03 61.65,9.87 125.16,10.06 185.32,27.94 168.74,46.75 306.57,176.38 382.38,331.9 -97.97,-101.14 -229.84,-156.64 -358.54,-207.11 -48.8,-19 -101.51,-25.7 -152.54,-34.64 85.49,-14.34 175.27,-8.94 252,34.27 -42.47,-42.47 -100.58,-64.26 -160.18,-64.63 -122,-2.24 -245.3,-0.18 -364.5,28.31 60.9,-44.7 135.03,-60.53 206.18,-80.84 -3.17,-8.38 -9.5,-25.14 -12.66,-33.53 -1.68,7.64 -5.22,22.72 -6.71,30.17 -90.71,7.82 -183.09,35.95 -250.33,99.46 -25.14,28.87 -23.47,69.66 -30.54,105.23 -83.07,-80.84 -80.65,-230.4 6.15,-306.2l0.19 -0.37z"/>
  </g>
  <path class="fil0" d="M3036.5 1658.16c12.11,89.59 11.92,180.29 15.46,270.63 53.27,-3.35 100.39,22.91 138.2,58.11 29.99,-28.5 59.79,-56.81 92.38,-82.51 -27.94,30.54 -56.62,59.97 -86.05,89.03 16.76,21.23 31.48,44.7 51.41,63.14 168,3.72 335.82,11.55 504,12.29 -166.7,4.65 -333.58,5.22 -500.28,1.12 8.38,25.52 16.58,51.03 24.21,76.74 240.08,2.98 480.35,3.54 720.24,4.84 -53.08,13.78 -108.77,-0.75 -162.97,3.54 -185.51,10.62 -371.39,11.92 -557.27,15.46 -9.87,30.54 -20.86,60.35 -33.34,89.96 45.45,0.75 91.08,0.75 136.52,3.35 -46.75,1.49 -93.31,0.93 -139.88,0.18 -12.48,15.46 -24.96,30.92 -37.44,46.38 12.66,14.53 37.81,43.58 50.66,58.29 -14.34,-12.85 -43.02,-38.37 -57.37,-51.22 -41.54,30.54 -86.05,60.9 -139.32,63.69 -7.82,133.92 -5.22,268.21 -7.26,401.94 0.75,-41.35 -18.44,-80.65 -10.8,-121.81 4.29,-93.87 -3.54,-188.12 -4.1,-281.99 -52.9,1.12 -97.78,-28.87 -138.76,-58.67 -21.05,22.54 -42.28,45.26 -65.19,65.74 18.63,-25.52 40.23,-48.79 62.02,-71.89 -13.78,-17.51 -27.01,-35.01 -40.42,-52.71 -62.02,2.98 -124.23,4.84 -186.25,1.86 60.72,-1.86 121.44,-1.3 182.16,-4.65 -10.99,-28.5 -21.6,-56.99 -30.92,-85.86 -244.93,-5.77 -490.22,-10.43 -734.95,-20.86 245.11,-1.86 490.59,-0.93 735.7,-5.59 6.33,-25.7 13.04,-51.59 20.3,-77.11 -173.96,3.35 -348.3,5.22 -522.07,0 176.19,-3.72 352.2,-8.94 528.21,-12.66 14.9,-21.42 30.17,-42.47 45.82,-63.14 -35.95,-38.74 -73.38,-75.8 -109.14,-114.55 40.23,34.46 77.48,71.9 116.03,108.21 36.13,-35.76 82.88,-57.74 134.1,-58.48 2.61,-90.15 8.38,-180.48 6.33,-270.63l-0.01 -0.19zm-168.75 397.47l0 0c52.15,-2.42 104.3,-4.84 156.64,-3.54 0.93,-37.25 1.68,-74.5 2.24,-111.56 -67.98,13.23 -122,58.11 -158.87,115.1zm187.37 -116.22l0 0c0.18,37.44 0.75,74.69 1.3,111.94 54.39,-0.75 108.59,2.61 162.79,3.72 -40.98,-54.95 -92.01,-108.59 -164.28,-115.67l0.18 0zm-192.58 129.26l0 0c-8.38,26.64 -16.2,53.27 -23.28,80.27 39.67,-1.86 80.84,-3.91 117.9,-19.56 24.59,-17.88 43.02,-43.02 64.82,-64.07 -53.27,0.75 -106.35,1.86 -159.43,3.35l-0 0zm196.12 -4.1l0 0c25.7,22.54 47.49,50.1 74.87,71.15 38.55,8.76 78.23,8.01 117.53,10.8 -7.64,-25.7 -15.65,-51.22 -24.03,-76.55 -56.06,-1.86 -112.31,-2.98 -168.37,-5.4zm-219.03 109.52l0 0c8.94,27.38 19.18,54.2 31.11,80.27 53.46,-0.18 106.91,-0.56 160.37,1.12 -19.74,-17.7 -39.3,-35.39 -58.67,-53.64 -32.22,-39.11 -89.03,-21.98 -132.8,-27.75l-0 0zm295.02 5.21l0 0c-24.77,27.01 -51.59,52.15 -78.78,76.74 52.71,3.35 105.23,5.22 158.13,7.26 17.13,-27.94 29.24,-58.48 39.3,-89.59 -39.67,0 -79.16,1.86 -118.46,5.4l-0.19 0.18zm-259.26 85.12l0 0c39.3,51.03 93.13,89.21 156.27,103.74 -0.18,-34.64 -0.75,-69.47 -1.3,-104.11 -51.78,0.93 -103.37,0.18 -155.15,0.37l0.19 0zm180.48 -0.19l0 0c-0.75,34.64 -1.3,69.29 -1.3,103.92 62.95,-11.55 114.55,-51.78 156.64,-97.78 -51.78,-1.3 -103.56,-3.91 -155.15,-6.15l-0.18 0z"/>
  <g id="_38723190304">
   <path class="fil0" d="M0.56 3699.13c283.48,0.18 566.96,-0.18 850.25,0 0.56,47.87 0.56,95.55 0,143.42 -212.52,0.18 -425.03,-0.75 -637.36,0.56 0.18,48.05 0.18,96.29 0,144.53 172.84,0 345.69,-0.56 518.35,0.18 -6.71,53.83 -49.54,91.82 -77.11,135.97 -147.33,0.37 -294.66,-0.18 -441.98,0.18 -0.75,86.42 -0.37,172.66 -2.05,259.08 -70.22,-0.37 -140.44,-0.37 -210.65,-0.37 0.18,-227.79 -0.18,-455.58 0.56,-683.37l0 -0.18z"/>
   <path class="fil0" d="M1159.25 3698.76c81.02,-0.18 162.04,-0.93 243.25,0.75 158.13,226.67 316.26,453.34 470.66,682.44 -81.95,0.18 -163.9,0.37 -245.86,0.37 -34.83,-46.01 -63.33,-96.29 -99.27,-141.55 -10.06,-19.74 -33.53,-13.23 -51.22,-14.9 -147.51,0.56 -295.21,-7.26 -442.54,1.68 -43.4,46.01 -70.78,104.3 -108.03,155.15 -78.78,-0.37 -157.57,0.18 -236.35,-0.18 153.47,-230.02 307.69,-459.49 469.55,-683.74l-0.18 -0.01zm-44.7 395.05l0 0c109.33,-0.56 218.85,-4.47 327.81,2.42 -60.35,-75.43 -108.96,-158.87 -165.02,-237.29 -64.63,70.59 -106.54,157.94 -162.79,235.05l0 -0.18z"/>
   <path class="fil0" d="M1936.67 3698.95c72.83,-0.18 145.84,-0.18 218.85,-0.37 0.75,180.85 1.3,361.71 -0.37,542.56 189.23,-0.56 378.65,0.18 567.89,0.18 0.56,47.31 0.18,94.43 -0.18,141.74 -262.24,-0.75 -524.3,-0.18 -786.55,-0.37 -0.18,-227.79 0.18,-455.58 0.37,-683.55l0 -0.18z"/>
   <path class="fil0" d="M2835.72 3699.13c71.71,0.18 143.79,0 215.68,-0.37 0.75,98.15 0.18,196.31 0.56,294.66 29.06,-2.79 61.28,-0.75 85.12,-20.86 117.71,-85.49 231.7,-175.64 349.41,-260.94 18.81,-17.51 45.63,-11.92 69.1,-12.66 69.47,0.75 138.76,0 208.23,1.12 -142.11,112.87 -287.58,220.9 -433.23,328.92 156.27,111.2 308.81,228.35 455.21,352.21 -90.15,1.3 -180.29,2.42 -270.44,0.75 -19.93,0.37 -35.58,-13.41 -51.03,-23.65 -95.55,-70.96 -184.95,-150.12 -283.29,-217.36 -36.32,-30.54 -84.19,-31.11 -129.08,-31.11 -1.3,91.08 0,182.16 -2.79,273.05 -71.71,-0.18 -143.42,-0.18 -215.12,-0.75 -0.56,-227.6 1.86,-455.02 1.3,-682.62l0.38 -0.37z"/>
   <path class="fil0" d="M3977.83 3706.39c121.44,-17.51 244.93,-7.45 367.29,-10.06 107.28,2.79 216.05,-7.82 322.03,12.85 69.1,12.66 133.36,62.58 145.84,134.48 14.34,89.03 7.45,179.92 8.94,269.7 -2.42,69.84 1.86,150.12 -48.61,205.44 -53.64,53.64 -134.48,60.9 -206.37,63.89 -165.95,1.3 -332.09,0.75 -498.23,0.56 -81.95,-2.05 -181.04,-6.33 -233.75,-79.34 -46.75,-72.83 -31.85,-164.09 -34.83,-246.04 3.72,-86.05 -12.11,-177.87 25.7,-258.52 27.38,-58.11 92.38,-83.26 151.8,-92.94l0.19 -0zm96.3 138.2l0 0c-37.07,12.11 -50.66,53.83 -49.54,89.4 -1.3,73.94 -2.79,147.89 0.93,221.64 0.37,51.22 49.36,89.03 98.72,85.86 124.61,0.93 249.4,0.75 374.19,-0.18 43.77,3.54 90.15,-25.14 94.43,-71.15 8.38,-69.29 3.35,-139.32 4.47,-208.98 -1.86,-34.83 1.49,-75.62 -25.14,-102.44 -26.82,-25.52 -66.68,-24.21 -101.14,-25.7 -97.41,-0.18 -195.01,0.56 -292.42,0.18 -35.01,0.56 -71.15,-0.18 -104.49,11.18l0 0.18z"/>
   <path class="fil0" d="M4953.8 3698.95c71.9,3.72 146.96,-8.38 216.99,5.77 207.67,152.73 415.53,305.64 620.6,462.1 -0.18,-155.71 1.86,-311.6 0.56,-467.31 70.96,-0.18 141.92,-0.75 212.89,-0.93 0.37,228.16 -0.18,456.51 0.37,684.48 -78.78,-0.56 -157.2,-0.75 -235.8,-0.18 -197.06,-160.18 -402.5,-309.55 -604.21,-463.96 0.93,154.59 1.3,309.18 1.3,463.59 -70.96,-0.37 -141.92,-0.18 -212.7,-0.75 -1.86,-227.6 0.18,-455.21 0.18,-682.81l-0.18 0z"/>
  </g>
  <path class="fil1" d="M315.38 4886.87c5.65,-7.65 11.31,-15.3 16.96,-23.62 5.65,-8.31 10.64,-16.29 15.3,-24.28l72.5 0c10.31,0 21.29,0 32.92,0 11.31,0.33 21.62,0.33 30.6,0.33 6.98,0.33 10.64,0.33 10.97,0.67 1.33,0.33 2.99,1.66 4.65,3.99 1.66,2.33 2.66,3.99 3.66,5.32 3.99,5.32 8.32,10.97 12.97,17.3 4.32,6.32 8.65,11.97 12.64,17.3 1,1.33 2,2 2.99,2.33 1,0.33 2.99,0.67 5.99,0.67 2.99,0.33 8.31,0.33 15.63,0 8.98,0 18.29,-0.33 27.94,-0.67 9.31,-0.33 17.96,-1 25.94,-1.33 -2,-2.33 -3.66,-4.32 -4.65,-5.66 -1.33,-1.33 -2.66,-2.99 -3.99,-4.65 -1.33,-1.66 -3.33,-4.32 -5.99,-7.98 -4.99,-6.32 -9.65,-13.3 -14.64,-20.62 -4.99,-6.98 -9.98,-13.97 -14.63,-20.95 -6.98,-9.65 -14.63,-20.62 -22.61,-32.59 -8.32,-11.64 -15.96,-23.28 -23.28,-34.59 -7.32,-11.31 -13.63,-20.95 -18.62,-28.93 -4.66,-6.98 -8.32,-12.64 -11.31,-17.3 -2.99,-4.65 -5.65,-8.98 -7.98,-12.64 -2.33,-3.66 -4.99,-7.65 -7.32,-11.64 -2.66,-3.66 -5.65,-8.31 -8.98,-13.3 -1.33,-1.33 -2.99,-2 -5.32,-2.33 -2.33,0 -5.32,0 -8.98,-0.33 -4.99,0 -12.97,0 -23.28,-0.33l-24.94 0c-4.32,0 -6.98,0 -8.32,-0.33 -1.66,0 -2.66,0.33 -2.99,0.66 -0.33,0.67 -1.33,2 -2.66,3.99 -2.99,4.66 -5.66,8.32 -7.32,11.31 -1.66,2.99 -4.65,7.32 -8.32,13.3 -9.64,14.97 -19.95,29.93 -30.6,44.9 -10.64,15.3 -20.95,30.6 -30.93,45.56 -38.91,56.87 -60.2,87.47 -63.85,91.46 -2,2 -2.99,3.32 -2.99,3.99 0,0.33 1.66,0.33 4.65,0.66 2.99,0.33 6.98,0.33 11.31,0.33 4.32,0 8.32,0 12.31,0 3.66,0 6.65,0 8.31,0 -1.66,0 -1.66,0 0,0l36.25 0zm150.33 -100.77c2,3.66 2.99,5.65 2.99,5.99 0,2 -1.33,2.99 -4.32,2.99 -2.99,0 -6.98,0 -12.64,0.33 -8.98,0.33 -19.62,0.33 -31.93,0.33 -14.97,0 -25.94,0 -32.26,-0.33 -4.32,-0.33 -7.65,-0.66 -9.98,-1 -2.33,-0.33 -2,-2 0.33,-4.65 1,-1 4.66,-6.98 11.64,-17.96 6.98,-10.97 16.3,-25.94 28.6,-45.23 0.67,-1 1.67,-2.66 2.99,-4.65 1,-1.67 2.33,-2.66 3.33,-2.66 0.33,0 2,2 4.65,5.66 4.32,6.98 9.31,14.97 14.64,24.28 5.32,9.31 10.31,17.63 14.97,24.61 -4.66,-6.98 -4.66,-6.98 0,0 2.66,4.65 4.99,8.65 6.98,12.31z"/>
  <path id="_1" class="fil1" d="M598.4 4672.68c-3.99,0.33 -8.32,0.33 -12.97,0.66 2.66,4.32 4.99,7.98 7.32,11.64 2.33,3.66 4.99,7.65 7.98,12.3 18.29,28.94 37.25,58.2 56.2,88.47 18.96,30.27 37.91,59.86 56.87,89.13 4.32,6.65 6.98,10.64 7.98,11.64 0.67,1 3.66,1.33 8.98,1.66 4.99,0.33 11.64,0.33 19.62,0 7.65,0 15.63,0 23.95,-0.33 8.32,0 15.3,0 21.29,0 9.64,-15.3 19.29,-30.6 28.93,-45.57 9.64,-14.97 18.96,-30.26 27.94,-45.23 9.64,-16.3 19.95,-33.26 30.93,-51.22 10.97,-17.63 21.62,-34.26 31.93,-49.56 3.66,-5.65 6.65,-9.64 8.31,-11.97 1.67,-2.33 4.32,-5.32 7.32,-8.98 1,-1.66 1.66,-2.33 1.66,-2.66 0,-0.33 -2.33,-0.33 -6.65,-0.66 -4.65,0 -10.31,0 -17.3,-0.33 -6.98,0 -13.97,0 -20.95,-0.33 -7.31,0 -13.63,0 -18.96,0 -5.65,0 -8.98,0 -10.64,0 -9.31,14.97 -18.96,30.93 -28.93,47.89 -9.98,16.97 -19.95,34.26 -29.93,51.55 -10.31,17.63 -19.95,34.26 -29.6,50.22 -1,1.66 -2.33,3.99 -3.99,6.32 -1.67,2.66 -2.99,4.99 -4.32,6.65 -1.66,1.66 -2.66,2.33 -3.33,1.66 -0.33,-0.33 -1.66,-2.33 -4.32,-6.65 -3.66,-5.66 -7.32,-11.64 -11.31,-18.63 -4.32,-6.98 -8.32,-13.63 -12.31,-19.95 -11.64,-19.62 -23.61,-39.58 -35.92,-59.53 -12.31,-19.95 -24.61,-39.58 -36.25,-58.87l-8.98 0c-4.65,0 -10.64,0 -17.63,0 -6.98,0.33 -13.3,0.33 -18.62,0.66 5.32,-0.33 5.32,-0.33 0,0 -5.66,0 -10.31,0 -14.3,0z"/>
  <polygon id="_2" class="fil1" points="1017.12,4886.87 1017.12,4671.35 951.27,4671.35 951.27,4886.87 "/>
  <path id="_3" class="fil1" d="M1108.58 4886.87c5.65,-7.65 11.31,-15.3 16.96,-23.62 5.65,-8.31 10.64,-16.29 15.3,-24.28l72.5 0c10.31,0 21.29,0 32.92,0 11.31,0.33 21.62,0.33 30.6,0.33 6.98,0.33 10.64,0.33 10.97,0.67 1.33,0.33 2.99,1.66 4.65,3.99 1.66,2.33 2.66,3.99 3.66,5.32 3.99,5.32 8.32,10.97 12.97,17.3 4.32,6.32 8.65,11.97 12.64,17.3 1,1.33 2,2 2.99,2.33 1,0.33 2.99,0.67 5.99,0.67 2.99,0.33 8.31,0.33 15.63,0 8.98,0 18.29,-0.33 27.94,-0.67 9.31,-0.33 17.96,-1 25.94,-1.33 -2,-2.33 -3.66,-4.32 -4.65,-5.66 -1.33,-1.33 -2.66,-2.99 -3.99,-4.65 -1.33,-1.66 -3.33,-4.32 -5.99,-7.98 -4.99,-6.32 -9.65,-13.3 -14.64,-20.62 -4.99,-6.98 -9.98,-13.97 -14.63,-20.95 -6.98,-9.65 -14.63,-20.62 -22.61,-32.59 -8.32,-11.64 -15.96,-23.28 -23.28,-34.59 -7.32,-11.31 -13.63,-20.95 -18.62,-28.93 -4.66,-6.98 -8.32,-12.64 -11.31,-17.3 -2.99,-4.65 -5.65,-8.98 -7.98,-12.64 -2.33,-3.66 -4.99,-7.65 -7.32,-11.64 -2.66,-3.66 -5.65,-8.31 -8.98,-13.3 -1.33,-1.33 -2.99,-2 -5.32,-2.33 -2.33,0 -5.32,0 -8.98,-0.33 -4.99,0 -12.97,0 -23.28,-0.33l-24.94 0c-4.32,0 -6.98,0 -8.32,-0.33 -1.66,0 -2.66,0.33 -2.99,0.66 -0.33,0.67 -1.33,2 -2.66,3.99 -2.99,4.66 -5.66,8.32 -7.32,11.31 -1.66,2.99 -4.65,7.32 -8.32,13.3 -9.64,14.97 -19.95,29.93 -30.6,44.9 -10.64,15.3 -20.95,30.6 -30.93,45.56 -38.91,56.87 -60.2,87.47 -63.85,91.46 -2,2 -2.99,3.32 -2.99,3.99 0,0.33 1.66,0.33 4.65,0.66 2.99,0.33 6.98,0.33 11.31,0.33 4.32,0 8.32,0 12.31,0 3.66,0 6.65,0 8.31,0 -1.66,0 -1.66,0 0,0l36.25 0zm150.33 -100.77c2,3.66 2.99,5.65 2.99,5.99 0,2 -1.33,2.99 -4.32,2.99 -2.99,0 -6.98,0 -12.64,0.33 -8.98,0.33 -19.62,0.33 -31.93,0.33 -14.97,0 -25.94,0 -32.26,-0.33 -4.32,-0.33 -7.65,-0.66 -9.98,-1 -2.33,-0.33 -2,-2 0.33,-4.65 1,-1 4.66,-6.98 11.64,-17.96 6.98,-10.97 16.3,-25.94 28.6,-45.23 0.67,-1 1.67,-2.66 2.99,-4.65 1,-1.67 2.33,-2.66 3.33,-2.66 0.33,0 2,2 4.65,5.66 4.32,6.98 9.31,14.97 14.64,24.28 5.32,9.31 10.31,17.63 14.97,24.61 -4.66,-6.98 -4.66,-6.98 0,0 2.66,4.65 4.99,8.65 6.98,12.31z"/>
  <path id="_4" class="fil1" d="M1553.9 4670.69c-16.3,0.33 -31.93,0.33 -47.56,0.33l-127.71 0.33 0 47.89 106.42 0 0 167.95c20.95,-0.33 41.9,-0.66 63.52,-1 -0.33,-28.27 -0.33,-56.2 -0.66,-84.47 -0.33,-27.94 -0.33,-55.87 -0.67,-84.14 34.92,1 70.17,1.66 105.43,2.33l0 -6.98c0,-6.65 0.33,-13.97 0.66,-21.62 0.33,-7.65 1,-14.63 1.33,-21.28l-10.31 0.33c-6.32,0 -13.3,0 -20.62,0 -7.65,0.33 -15.63,0.33 -24.28,0.33 8.65,0 8.65,0 0,0 -14.3,0 -29.6,0 -45.56,0z"/>
  <polygon id="_5" class="fil1" points="1738.81,4886.87 1738.81,4671.35 1672.96,4671.35 1672.96,4886.87 "/>
  <path id="_6" class="fil1" d="M1808.65 4678.67c-6.32,2.99 -12.31,7.32 -18.29,13.63 -4.99,4.66 -8.65,9.31 -11.31,13.97 -2.66,4.99 -4.32,11.31 -5.32,19.29 -0.67,9.65 -1,20.62 -1,32.92 -0.33,12.31 -0.33,23.62 -0.33,34.59 0,6.98 0,13.97 0,21.28 0,7.32 0.33,13.64 1.33,18.63 2,14.63 7.31,25.94 15.63,33.59 8.32,7.98 19.29,13.97 33.26,17.63 7.65,2.33 14.97,3.33 21.95,2.99 6.98,0 16.29,0 27.27,0l49.56 0c26.6,0 48.55,-0.33 65.85,-0.66 17.3,-0.33 27.6,-0.66 30.6,-1.33 6.32,-1 13.3,-3.32 20.62,-6.98 7.31,-3.32 12.97,-6.98 16.63,-10.64 3.99,-3.66 7.65,-8.98 10.64,-15.63 2.99,-6.32 4.99,-12.97 5.99,-19.62 1,-9.31 1.33,-19.95 1.33,-31.59 0,-11.64 0,-22.95 0,-33.59 0,-8.98 0,-17.3 -0.33,-24.61 -0.33,-12.3 -2,-22.28 -4.32,-30.27 -2.66,-7.98 -7.65,-15.3 -14.64,-21.95 -4.32,-4.32 -9.31,-8.31 -14.3,-11.3 -4.99,-2.99 -11.31,-4.99 -18.96,-5.99 -7.32,-1 -14.64,-1.33 -21.95,-1.33 -7.65,0 -16.3,0 -25.94,0l-46.89 0c-15.3,0 -30.93,0 -47.23,0.33 -16.3,0.33 -31.26,0.33 -44.9,0.33 13.63,0 13.63,0 0,0 -10.31,1.67 -18.63,3.66 -24.94,6.32zm201.54 97.45c0,5.65 0,10.97 -0.33,16.29 -0.33,5.32 -0.33,9.65 -0.66,13.3 -0.66,6.98 -1,11.97 -1.33,14.63 -0.33,2.99 -1.66,6.32 -4.32,9.98 -2,2.99 -3.99,4.99 -5.66,6.65 -1.66,1.66 -4.99,2.66 -9.31,2.99 -4.32,0.66 -11.64,1 -21.62,1 -10.31,0.33 -24.61,0.33 -43.57,0.33l-37.91 0c-9.31,0 -16.3,0 -20.62,-0.33 -7.65,-0.33 -13.3,-1.67 -16.96,-3.66 -3.66,-2 -6.32,-5.32 -7.98,-9.64 -1.66,-4.32 -2.66,-10.31 -3.32,-17.96 -1,-5.65 -1.33,-12.31 -1.33,-19.95 0,-7.65 0,-14.63 0.33,-21.62 0.33,-5.66 0.33,-11.97 0.66,-18.29 0.33,-6.32 1,-11.64 2,-15.63 1,-2.99 2.66,-5.99 5.65,-8.98 2.99,-3 5.66,-4.99 8.65,-5.99 1,-0.33 4.65,-0.33 11.64,-0.66 8.98,0 18.96,0 29.93,-0.33 10.64,0 21.29,0 31.6,0 16.96,0.33 30.26,0.33 39.91,0.33 9.64,0 16.63,0 20.95,0.33 3.32,0.33 5.99,0.33 7.65,0.66 1.66,0.33 3.33,1 4.99,2.33 5.65,3.66 8.65,8.98 9.64,15.3 0.67,6.65 1,14.97 1.33,24.94 -0.33,-9.98 -0.33,-9.98 0,0 0,3.99 0,8.65 0,13.97z"/>
  <path id="_7" class="fil1" d="M2314.17 4800.39c-6.98,-6.32 -16.63,-15.63 -28.93,-27.27 -17.29,-17.3 -34.92,-34.59 -53.21,-52.22 -18.29,-17.3 -36.25,-34.26 -53.54,-50.88l-31.26 0c-8.31,0 -15.63,0 -21.95,0.33 -6.32,0.33 -9.31,0.67 -9.64,1 -0.33,0.33 -0.33,5.32 -0.33,14.97 -0.33,13.64 -0.33,28.6 -0.33,44.9 -0.33,16.29 -0.33,32.59 -0.33,48.22l0 106.76c20.29,0.33 40.57,0.67 61.2,1 0,-3.66 0,-9.31 0,-17.63 -0.33,-8.32 -0.33,-17.63 -0.67,-28.27 -0.33,-10.31 -0.33,-20.95 -0.33,-31.93 -0.33,-10.97 -0.33,-20.95 0,-30.26 0,-9.31 0,-16.96 0.33,-22.62 0,-5.65 0.33,-8.65 0.67,-8.65 1,0 2,0.66 3.66,2.33 1.66,1.66 2.66,2.99 3.33,3.66 2.33,2.33 5.32,5.32 9.31,8.98 3.66,3.66 6.98,6.98 9.98,9.31 2.99,2.66 6.98,5.99 11.64,10.31 4.32,4.32 8.98,8.65 13.63,12.97 4.32,4.32 8.32,8.32 11.64,11.31 13.3,13.3 27.27,26.6 41.57,40.24 14.3,13.63 28.27,26.94 41.9,39.91l64.19 0c0.33,-32.26 0.66,-65.85 1,-100.44 0.33,-34.59 0.66,-67.85 1,-99.44 0,-9.65 0,-14.64 -0.33,-14.97 -0.33,0 -3.33,0 -9.31,-0.33 -7.65,-0.33 -16.29,-0.33 -25.61,-0.66 -9.64,-0.33 -18.62,-0.33 -26.94,-0.33l-0.33 68.18c0,11.64 0,23.61 -0.33,35.92 -0.33,12.31 -0.67,23.95 -0.67,34.26 0,-10.31 0,-10.31 0,0 -0.33,0.66 -3.99,-2.33 -10.97,-8.65z"/>
  <path id="_8" class="fil1" d="M2582.56 4886.87c5.65,-7.65 11.31,-15.3 16.96,-23.62 5.65,-8.31 10.64,-16.29 15.3,-24.28l72.5 0c10.31,0 21.29,0 32.92,0 11.31,0.33 21.62,0.33 30.6,0.33 6.98,0.33 10.64,0.33 10.97,0.67 1.33,0.33 2.99,1.66 4.65,3.99 1.66,2.33 2.66,3.99 3.66,5.32 3.99,5.32 8.32,10.97 12.97,17.3 4.32,6.32 8.65,11.97 12.64,17.3 1,1.33 2,2 2.99,2.33 1,0.33 2.99,0.67 5.99,0.67 2.99,0.33 8.31,0.33 15.63,0 8.98,0 18.29,-0.33 27.94,-0.67 9.31,-0.33 17.96,-1 25.94,-1.33 -2,-2.33 -3.66,-4.32 -4.65,-5.66 -1.33,-1.33 -2.66,-2.99 -3.99,-4.65 -1.33,-1.66 -3.33,-4.32 -5.99,-7.98 -4.99,-6.32 -9.65,-13.3 -14.64,-20.62 -4.99,-6.98 -9.98,-13.97 -14.63,-20.95 -6.98,-9.65 -14.63,-20.62 -22.61,-32.59 -8.32,-11.64 -15.96,-23.28 -23.28,-34.59 -7.32,-11.31 -13.63,-20.95 -18.62,-28.93 -4.66,-6.98 -8.32,-12.64 -11.31,-17.3 -2.99,-4.65 -5.65,-8.98 -7.98,-12.64 -2.33,-3.66 -4.99,-7.65 -7.32,-11.64 -2.66,-3.66 -5.65,-8.31 -8.98,-13.3 -1.33,-1.33 -2.99,-2 -5.32,-2.33 -2.33,0 -5.32,0 -8.98,-0.33 -4.99,0 -12.97,0 -23.28,-0.33l-24.94 0c-4.32,0 -6.98,0 -8.32,-0.33 -1.66,0 -2.66,0.33 -2.99,0.66 -0.33,0.67 -1.33,2 -2.66,3.99 -2.99,4.66 -5.66,8.32 -7.32,11.31 -1.66,2.99 -4.65,7.32 -8.32,13.3 -9.64,14.97 -19.95,29.93 -30.6,44.9 -10.64,15.3 -20.95,30.6 -30.93,45.56 -38.91,56.87 -60.2,87.47 -63.85,91.46 -2,2 -2.99,3.32 -2.99,3.99 0,0.33 1.66,0.33 4.65,0.66 2.99,0.33 6.98,0.33 11.31,0.33 4.32,0 8.32,0 12.31,0 3.66,0 6.65,0 8.31,0 -1.66,0 -1.66,0 0,0l36.25 0zm150.33 -100.77c2,3.66 2.99,5.65 2.99,5.99 0,2 -1.33,2.99 -4.32,2.99 -2.99,0 -6.98,0 -12.64,0.33 -8.98,0.33 -19.62,0.33 -31.93,0.33 -14.97,0 -25.94,0 -32.26,-0.33 -4.32,-0.33 -7.65,-0.66 -9.98,-1 -2.33,-0.33 -2,-2 0.33,-4.65 1,-1 4.66,-6.98 11.64,-17.96 6.98,-10.97 16.3,-25.94 28.6,-45.23 0.67,-1 1.67,-2.66 2.99,-4.65 1,-1.67 2.33,-2.66 3.33,-2.66 0.33,0 2,2 4.65,5.66 4.32,6.98 9.31,14.97 14.64,24.28 5.32,9.31 10.31,17.63 14.97,24.61 -4.66,-6.98 -4.66,-6.98 0,0 2.66,4.65 4.99,8.65 6.98,12.31z"/>
  <path id="_9" class="fil1" d="M3102.04 4800.39c-6.98,-6.32 -16.63,-15.63 -28.93,-27.27 -17.29,-17.3 -34.92,-34.59 -53.21,-52.22 -18.29,-17.3 -36.25,-34.26 -53.54,-50.88l-31.26 0c-8.31,0 -15.63,0 -21.95,0.33 -6.32,0.33 -9.31,0.67 -9.64,1 -0.33,0.33 -0.33,5.32 -0.33,14.97 -0.33,13.64 -0.33,28.6 -0.33,44.9 -0.33,16.29 -0.33,32.59 -0.33,48.22l0 106.76c20.29,0.33 40.57,0.67 61.2,1 0,-3.66 0,-9.31 0,-17.63 -0.33,-8.32 -0.33,-17.63 -0.67,-28.27 -0.33,-10.31 -0.33,-20.95 -0.33,-31.93 -0.33,-10.97 -0.33,-20.95 0,-30.26 0,-9.31 0,-16.96 0.33,-22.62 0,-5.65 0.33,-8.65 0.67,-8.65 1,0 2,0.66 3.66,2.33 1.66,1.66 2.66,2.99 3.33,3.66 2.33,2.33 5.32,5.32 9.31,8.98 3.66,3.66 6.98,6.98 9.98,9.31 2.99,2.66 6.98,5.99 11.64,10.31 4.32,4.32 8.98,8.65 13.63,12.97 4.32,4.32 8.32,8.32 11.64,11.31 13.3,13.3 27.27,26.6 41.57,40.24 14.3,13.63 28.27,26.94 41.9,39.91l64.19 0c0.33,-32.26 0.66,-65.85 1,-100.44 0.33,-34.59 0.66,-67.85 1,-99.44 0,-9.65 0,-14.64 -0.33,-14.97 -0.33,0 -3.33,0 -9.31,-0.33 -7.65,-0.33 -16.29,-0.33 -25.61,-0.66 -9.64,-0.33 -18.62,-0.33 -26.94,-0.33l-0.33 68.18c0,11.64 0,23.61 -0.33,35.92 -0.33,12.31 -0.67,23.95 -0.67,34.26 0,-10.31 0,-10.31 0,0 -0.33,0.66 -3.99,-2.33 -10.97,-8.65z"/>
  <path id="_10" class="fil1" d="M3218.78 4886.2l176.27 0c14.63,0 26.6,0 35.58,-0.33 7.98,0 14.97,0 21.29,-0.33 5.99,0 11.97,-0.66 17.63,-2 14.3,-3.66 24.94,-10.64 32.59,-20.29 7.65,-9.64 11.64,-23.28 12.64,-40.57 0.33,-12.97 0.66,-27.27 0.66,-42.9 0,-15.63 -0.33,-29.93 -0.66,-42.9 -0.67,-10.97 -2.33,-19.95 -4.99,-26.61 -2.66,-6.32 -7.32,-12.64 -13.64,-18.62 -5.65,-4.65 -11.64,-8.65 -18.62,-11.97 -6.98,-3.33 -15.3,-5.32 -24.61,-6.32 -8.65,-0.66 -17.3,-1 -25.61,-1 -8.31,0 -18.62,0 -30.26,-0.33 -17.96,0 -36.92,0 -57.2,-0.33 -20.29,0 -40.91,0 -61.53,-0.33 -20.62,0 -40.24,0 -58.87,0l-0.33 83.48 0 45.23c0,10.64 0,21.62 0,32.59 -0.33,10.97 -0.33,20.95 -0.33,29.6 0,-8.65 0,-8.65 0,0l0 23.95zm232.8 -130.7c0,6.98 0,13.3 0,18.96 0,8.65 0,17.3 -0.33,25.94 -0.33,8.65 -1.33,16.3 -2.99,22.95 -2,6.98 -5.65,11.64 -10.64,14.64 -1,0.66 -7.32,1.33 -18.96,1.66 -6.65,0.33 -15.3,0.33 -25.61,0.66 -10.31,0.33 -21.62,0.33 -33.26,0.33 -11.97,0.33 -23.62,0.33 -34.59,0.33 -10.97,0.33 -20.62,0.33 -28.6,0.33 -6.98,0 -10.64,0 -10.97,-0.33 -0.33,-0.33 -0.66,-2.33 -1,-5.99 -0.33,-8.32 -0.66,-16.96 -0.66,-25.28 0,-8.32 0,-18.29 0,-29.93l0 -60.53 72.83 0c13.63,0 25.61,0 35.25,0 9.64,0 19.29,0 29.6,0.33 15.96,0.33 25.61,6.98 28.6,19.95 -2.99,-12.97 -2.99,-12.97 0,0 1,3.99 1.33,9.31 1.33,15.96z"/>
  <path id="_11" class="fil1" d="M3636.49 4886.2l176.27 0c14.63,0 26.6,0 35.58,-0.33 7.98,0 14.97,0 21.29,-0.33 5.99,0 11.97,-0.66 17.63,-2 14.3,-3.66 24.94,-10.64 32.59,-20.29 7.65,-9.64 11.64,-23.28 12.64,-40.57 0.33,-12.97 0.66,-27.27 0.66,-42.9 0,-15.63 -0.33,-29.93 -0.66,-42.9 -0.67,-10.97 -2.33,-19.95 -4.99,-26.61 -2.66,-6.32 -7.32,-12.64 -13.64,-18.62 -5.65,-4.65 -11.64,-8.65 -18.62,-11.97 -6.98,-3.33 -15.3,-5.32 -24.61,-6.32 -8.65,-0.66 -17.3,-1 -25.61,-1 -8.31,0 -18.62,0 -30.26,-0.33 -17.96,0 -36.92,0 -57.2,-0.33 -20.29,0 -40.91,0 -61.53,-0.33 -20.62,0 -40.24,0 -58.87,0l-0.33 83.48 0 45.23c0,10.64 0,21.62 0,32.59 -0.33,10.97 -0.33,20.95 -0.33,29.6 0,-8.65 0,-8.65 0,0l0 23.95zm232.8 -130.7c0,6.98 0,13.3 0,18.96 0,8.65 0,17.3 -0.33,25.94 -0.33,8.65 -1.33,16.3 -2.99,22.95 -2,6.98 -5.65,11.64 -10.64,14.64 -1,0.66 -7.32,1.33 -18.96,1.66 -6.65,0.33 -15.3,0.33 -25.61,0.66 -10.31,0.33 -21.62,0.33 -33.26,0.33 -11.97,0.33 -23.62,0.33 -34.59,0.33 -10.97,0.33 -20.62,0.33 -28.6,0.33 -6.98,0 -10.64,0 -10.97,-0.33 -0.33,-0.33 -0.66,-2.33 -1,-5.99 -0.33,-8.32 -0.66,-16.96 -0.66,-25.28 0,-8.32 0,-18.29 0,-29.93l0 -60.53 72.83 0c13.63,0 25.61,0 35.25,0 9.64,0 19.29,0 29.6,0.33 15.96,0.33 25.61,6.98 28.6,19.95 -2.99,-12.97 -2.99,-12.97 0,0 1,3.99 1.33,9.31 1.33,15.96z"/>
  <path id="_12" class="fil1" d="M4203.54 4795.4l0 -34.25c0,-3.99 0,-5.99 -0.33,-6.32 -26.27,-0.33 -53.55,-0.66 -81.15,-1 -27.94,-0.33 -55.54,-0.33 -82.48,-0.66l-0.66 -35.25 189.9 0c0.33,-7.65 1,-15.3 1.66,-23.62 0.33,-7.98 1,-15.63 1.67,-22.95l-259.08 0c0.33,35.92 0.33,71.84 0.66,107.42 0.33,35.92 0.67,71.84 1,107.42 44.57,0 89.13,0 133.37,0.33 44.23,0.33 88.8,0.33 133.03,0.66l0 -9.64c0,-5.99 0.33,-12.31 0.66,-18.62 0.33,-6.32 1,-12.64 1.33,-18.29 -67.18,-0.33 -134.36,-0.33 -201.87,-0.66 0,-7.32 0,-14.64 -0.33,-21.62 -0.33,-6.98 -0.33,-14.3 -0.66,-21.28l116.4 0c7.98,0 15.63,0 22.95,-0.33 6.98,-0.33 13.64,-0.33 19.29,-0.33 -5.65,0 -5.65,0 0,0l4.65 -1z"/>
  <path id="_13" class="fil1" d="M4271.05 4886.87l64.85 0c0.33,-8.98 1,-18.96 1.33,-29.27 0.33,-10.31 0.66,-20.29 0.66,-29.93l0 -16.96 74.83 0c22.95,0 41.57,0 55.54,-0.33 13.97,-0.33 21.28,-0.66 22.28,-1.33 0.67,-0.33 2,-2 3.66,-4.99 2.33,-4.32 4.99,-9.31 7.65,-15.63 2.66,-5.99 4.65,-11.64 5.99,-16.96 0.66,-2.33 0.33,-3.66 -1,-3.99 -1.33,-0.33 -3.33,-0.33 -5.99,-0.66 -1.66,-0.33 -6.32,-0.33 -14.63,-0.66 -10.31,0 -21.95,0 -34.26,-0.33 -12.64,0 -24.94,0 -36.59,0l-77.49 0 0.66 -47.23c65.52,-0.33 131.04,-0.33 196.56,-0.66 0.33,-5.32 1,-11.31 1.33,-17.63 0.33,-6.32 0.67,-12.3 0.67,-17.96l0 -10.97 -183.92 0c-12.31,0 -24.61,0 -36.59,0 -12.3,0.33 -23.61,0.33 -34.25,0.33l-10.31 0c-0.33,0.33 -0.33,5.32 -0.33,14.97 0,13.63 0,28.6 0,44.9 -0.33,16.3 -0.33,32.26 -0.33,47.89 0,-15.63 0,-15.63 0,0l-0.33 107.42z"/>
  <path id="_14" class="fil1" d="M4795.53 4795.4l0 -34.25c0,-3.99 0,-5.99 -0.33,-6.32 -26.27,-0.33 -53.55,-0.66 -81.15,-1 -27.94,-0.33 -55.54,-0.33 -82.48,-0.66l-0.66 -35.25 189.9 0c0.33,-7.65 1,-15.3 1.66,-23.62 0.33,-7.98 1,-15.63 1.67,-22.95l-259.08 0c0.33,35.92 0.33,71.84 0.66,107.42 0.33,35.92 0.67,71.84 1,107.42 44.57,0 89.13,0 133.37,0.33 44.23,0.33 88.8,0.33 133.03,0.66l0 -9.64c0,-5.99 0.33,-12.31 0.66,-18.62 0.33,-6.32 1,-12.64 1.33,-18.29 -67.18,-0.33 -134.36,-0.33 -201.87,-0.66 0,-7.32 0,-14.64 -0.33,-21.62 -0.33,-6.98 -0.33,-14.3 -0.66,-21.28l116.4 0c7.98,0 15.63,0 22.95,-0.33 6.98,-0.33 13.64,-0.33 19.29,-0.33 -5.65,0 -5.65,0 0,0l4.65 -1z"/>
  <path id="_15" class="fil1" d="M5062.59 4800.39c-6.98,-6.32 -16.63,-15.63 -28.93,-27.27 -17.29,-17.3 -34.92,-34.59 -53.21,-52.22 -18.29,-17.3 -36.25,-34.26 -53.54,-50.88l-31.26 0c-8.31,0 -15.63,0 -21.95,0.33 -6.32,0.33 -9.31,0.67 -9.64,1 -0.33,0.33 -0.33,5.32 -0.33,14.97 -0.33,13.64 -0.33,28.6 -0.33,44.9 -0.33,16.29 -0.33,32.59 -0.33,48.22l0 106.76c20.29,0.33 40.57,0.67 61.2,1 0,-3.66 0,-9.31 0,-17.63 -0.33,-8.32 -0.33,-17.63 -0.67,-28.27 -0.33,-10.31 -0.33,-20.95 -0.33,-31.93 -0.33,-10.97 -0.33,-20.95 0,-30.26 0,-9.31 0,-16.96 0.33,-22.62 0,-5.65 0.33,-8.65 0.67,-8.65 1,0 2,0.66 3.66,2.33 1.66,1.66 2.66,2.99 3.33,3.66 2.33,2.33 5.32,5.32 9.31,8.98 3.66,3.66 6.98,6.98 9.98,9.31 2.99,2.66 6.98,5.99 11.64,10.31 4.32,4.32 8.98,8.65 13.63,12.97 4.32,4.32 8.32,8.32 11.64,11.31 13.3,13.3 27.27,26.6 41.57,40.24 14.3,13.63 28.27,26.94 41.9,39.91l64.19 0c0.33,-32.26 0.66,-65.85 1,-100.44 0.33,-34.59 0.66,-67.85 1,-99.44 0,-9.65 0,-14.64 -0.33,-14.97 -0.33,0 -3.33,0 -9.31,-0.33 -7.65,-0.33 -16.29,-0.33 -25.61,-0.66 -9.64,-0.33 -18.62,-0.33 -26.94,-0.33l-0.33 68.18c0,11.64 0,23.61 -0.33,35.92 -0.33,12.31 -0.67,23.95 -0.67,34.26 0,-10.31 0,-10.31 0,0 -0.33,0.66 -3.99,-2.33 -10.97,-8.65z"/>
  <path id="_16" class="fil1" d="M5362.57 4840.64c-15.63,0 -30.6,0 -45.23,-0.33 -14.64,0 -28.27,0 -41.24,-0.33 -8.65,-0.33 -13.63,-0.33 -14.63,-0.67 -2.99,-1 -5.99,-2.66 -8.98,-5.32 -3.99,-3.66 -6.65,-7.32 -7.65,-10.97 -1.33,-3.66 -2,-9.31 -2,-16.96 -0.33,-5.99 -0.33,-14.64 -0.66,-25.94l0 -23.62c0,-5.65 0,-9.64 0.33,-12.64 0,-4.99 1.33,-9.31 3.66,-12.64 2.33,-2.99 5.32,-5.66 8.98,-7.98 2.33,-1.67 3.99,-2.66 5.65,-3.33 1.33,-0.67 3.66,-1 7.32,-1.33 16.3,-1 34.26,-1.66 53.21,-2 18.96,0 37.58,0 55.87,0 11.97,0 24.28,-0.33 36.92,-0.66 12.64,-0.33 24.28,-0.33 34.59,-0.33 0.33,-0.33 1.33,-1.66 2.33,-4.65 1.66,-4.32 3.33,-9.65 4.99,-15.3 1.66,-5.65 3.66,-10.64 5.32,-14.97 0.66,-1.33 1.33,-2.99 2.33,-4.65 1,-1.67 1.33,-2.99 1.33,-3.99 0,-0.33 -3.66,-0.33 -11.31,-0.33 -7.65,0 -17.96,0 -30.6,-0.33 -26.27,-0.33 -53.54,-0.33 -82.15,0 -28.93,0.33 -56.21,0.67 -81.81,1 -13.63,0.33 -24.61,1.33 -33.26,3.33 -8.65,2.33 -16.96,6.32 -24.61,12.31 -8.65,6.98 -14.63,14.63 -17.63,23.61 -3.33,8.98 -5.32,20.95 -5.66,36.25 -0.33,10.31 -0.33,24.94 0,43.24 0.33,10.64 0.33,19.29 0.33,26.27 0,6.98 0.33,13.97 1.33,21.29 1.66,12.97 6.32,22.61 13.97,28.93 7.31,6.32 16.96,11.64 28.6,15.3 1.66,0.66 3.99,1 6.32,1.33 4.32,0.67 8.31,1 12.64,1.33 4.32,0.33 9.31,0.33 15.63,0.33 17.63,0.33 36.92,0.66 57.54,1 20.62,0.33 41.24,0.33 62.19,0.66 20.62,0.33 40.24,0.33 58.53,0.33l17.63 0 5.99 -1 0.67 -22.62 0 -15.96c0,-4.32 0,-6.65 -0.33,-6.98 0,-0.33 -2,-0.33 -5.99,-0.66 -3.99,0 -8.98,0 -14.63,0 -5.66,0 -11.31,0 -16.3,0 -4.99,0 -8.98,0 -11.31,0 2.33,0 2.33,0 0,0l-48.22 0z"/>
  <path id="_17" class="fil1" d="M5723.08 4795.4l0 -34.25c0,-3.99 0,-5.99 -0.33,-6.32 -26.27,-0.33 -53.55,-0.66 -81.15,-1 -27.94,-0.33 -55.54,-0.33 -82.48,-0.66l-0.66 -35.25 189.9 0c0.33,-7.65 1,-15.3 1.66,-23.62 0.33,-7.98 1,-15.63 1.67,-22.95l-259.08 0c0.33,35.92 0.33,71.84 0.66,107.42 0.33,35.92 0.67,71.84 1,107.42 44.57,0 89.13,0 133.37,0.33 44.23,0.33 88.8,0.33 133.03,0.66l0 -9.64c0,-5.99 0.33,-12.31 0.66,-18.62 0.33,-6.32 1,-12.64 1.33,-18.29 -67.18,-0.33 -134.36,-0.33 -201.87,-0.66 0,-7.32 0,-14.64 -0.33,-21.62 -0.33,-6.98 -0.33,-14.3 -0.66,-21.28l116.4 0c7.98,0 15.63,0 22.95,-0.33 6.98,-0.33 13.64,-0.33 19.29,-0.33 -5.65,0 -5.65,0 0,0l4.65 -1z"/>
  <path id="_18" class="fil1" d="M1404.24 4992.95c-16.3,0.33 -31.93,0.33 -47.56,0.33l-127.71 0.33 0 47.89 106.42 0 0 167.95c20.95,-0.33 41.9,-0.66 63.52,-1 -0.33,-28.27 -0.33,-56.2 -0.66,-84.47 -0.33,-27.94 -0.33,-55.87 -0.67,-84.14 34.92,1 70.17,1.66 105.43,2.33l0 -6.98c0,-6.65 0.33,-13.97 0.66,-21.62 0.33,-7.65 1,-14.63 1.33,-21.28l-10.31 0.33c-6.32,0 -13.3,0 -20.62,0 -7.65,0.33 -15.63,0.33 -24.28,0.33 8.65,0 8.65,0 0,0 -14.3,0 -29.6,0 -45.56,0z"/>
  <path id="_19" class="fil1" d="M1763.43 5117.67l0 -34.25c0,-3.99 0,-5.99 -0.33,-6.32 -26.27,-0.33 -53.55,-0.66 -81.15,-1 -27.94,-0.33 -55.54,-0.33 -82.48,-0.66l-0.66 -35.25 189.9 0c0.33,-7.65 1,-15.3 1.66,-23.62 0.33,-7.98 1,-15.63 1.67,-22.95l-259.08 0c0.33,35.92 0.33,71.84 0.66,107.42 0.33,35.92 0.67,71.84 1,107.42 44.57,0 89.13,0 133.37,0.33 44.23,0.33 88.8,0.33 133.03,0.66l0 -9.64c0,-5.99 0.33,-12.31 0.66,-18.62 0.33,-6.32 1,-12.64 1.33,-18.29 -67.18,-0.33 -134.36,-0.33 -201.87,-0.66 0,-7.32 0,-14.64 -0.33,-21.62 -0.33,-6.98 -0.33,-14.3 -0.66,-21.28l116.4 0c7.98,0 15.63,0 22.95,-0.33 6.98,-0.33 13.64,-0.33 19.29,-0.33 -5.65,0 -5.65,0 0,0l4.65 -1z"/>
  <path id="_20" class="fil1" d="M2016.19 5162.9c-15.63,0 -30.6,0 -45.23,-0.33 -14.64,0 -28.27,0 -41.24,-0.33 -8.65,-0.33 -13.63,-0.33 -14.63,-0.67 -2.99,-1 -5.99,-2.66 -8.98,-5.32 -3.99,-3.66 -6.65,-7.32 -7.65,-10.97 -1.33,-3.66 -2,-9.31 -2,-16.96 -0.33,-5.99 -0.33,-14.64 -0.66,-25.94l0 -23.62c0,-5.65 0,-9.64 0.33,-12.64 0,-4.99 1.33,-9.31 3.66,-12.64 2.33,-2.99 5.32,-5.66 8.98,-7.98 2.33,-1.67 3.99,-2.66 5.65,-3.33 1.33,-0.67 3.66,-1 7.32,-1.33 16.3,-1 34.26,-1.66 53.21,-2 18.96,0 37.58,0 55.87,0 11.97,0 24.28,-0.33 36.92,-0.66 12.64,-0.33 24.28,-0.33 34.59,-0.33 0.33,-0.33 1.33,-1.66 2.33,-4.65 1.66,-4.32 3.33,-9.65 4.99,-15.3 1.66,-5.65 3.66,-10.64 5.32,-14.97 0.66,-1.33 1.33,-2.99 2.33,-4.65 1,-1.67 1.33,-2.99 1.33,-3.99 0,-0.33 -3.66,-0.33 -11.31,-0.33 -7.65,0 -17.96,0 -30.6,-0.33 -26.27,-0.33 -53.54,-0.33 -82.15,0 -28.93,0.33 -56.21,0.67 -81.81,1 -13.63,0.33 -24.61,1.33 -33.26,3.33 -8.65,2.33 -16.96,6.32 -24.61,12.31 -8.65,6.98 -14.63,14.63 -17.63,23.61 -3.33,8.98 -5.32,20.95 -5.66,36.25 -0.33,10.31 -0.33,24.94 0,43.24 0.33,10.64 0.33,19.29 0.33,26.27 0,6.98 0.33,13.97 1.33,21.29 1.66,12.97 6.32,22.61 13.97,28.93 7.31,6.32 16.96,11.64 28.6,15.3 1.66,0.66 3.99,1 6.32,1.33 4.32,0.67 8.31,1 12.64,1.33 4.32,0.33 9.31,0.33 15.63,0.33 17.63,0.33 36.92,0.66 57.54,1 20.62,0.33 41.24,0.33 62.19,0.66 20.62,0.33 40.24,0.33 58.53,0.33l17.63 0 5.99 -1 0.67 -22.62 0 -15.96c0,-4.32 0,-6.65 -0.33,-6.98 0,-0.33 -2,-0.33 -5.99,-0.66 -3.99,0 -8.98,0 -14.63,0 -5.66,0 -11.31,0 -16.3,0 -4.99,0 -8.98,0 -11.31,0 2.33,0 2.33,0 0,0l-48.22 0z"/>
  <path id="_21" class="fil1" d="M2146.22 4993.95l0 215.18 62.86 0 0 -36.92c0,-8.65 0,-17.96 0.33,-27.61 0.33,-9.64 0.66,-17.63 1.66,-23.61l167.29 0 0 88.13 63.85 0c0.33,-25.61 1,-52.22 1.33,-79.15 0.33,-26.94 0.67,-53.54 0.67,-80.15l0 -55.87 -7.98 -0.66c-3.66,-1 -8.65,-1.33 -15.63,-1.33 -6.98,0.33 -12.64,0.33 -17.29,0.33l-24.94 0 0 80.15c-14.3,0.33 -29.93,0.33 -46.56,0.66 -16.96,0.33 -33.59,0.33 -49.89,0.33 -16.63,0.33 -31.93,0.33 -45.56,0 -15.63,0 -23.62,-0.33 -24.61,-0.67 -1.66,-0.66 -2.33,-2.33 -2.33,-5.32 0,-2.66 0,-5.66 0,-9.31 -0.33,-5.65 -0.33,-14.3 -0.33,-26.27l0 -39.91c-8.98,0.33 -18.62,0.33 -28.6,0.66 -10.31,0.33 -19.62,0.67 -27.94,0.67 8.31,0 8.31,0 0,0l-6.32 0.66z"/>
  <path id="_22" class="fil1" d="M2686.66 5122.66c-6.98,-6.32 -16.63,-15.63 -28.93,-27.27 -17.29,-17.3 -34.92,-34.59 -53.21,-52.22 -18.29,-17.3 -36.25,-34.26 -53.54,-50.88l-31.26 0c-8.31,0 -15.63,0 -21.95,0.33 -6.32,0.33 -9.31,0.67 -9.64,1 -0.33,0.33 -0.33,5.32 -0.33,14.97 -0.33,13.64 -0.33,28.6 -0.33,44.9 -0.33,16.29 -0.33,32.59 -0.33,48.22l0 106.76c20.29,0.33 40.57,0.67 61.2,1 0,-3.66 0,-9.31 0,-17.63 -0.33,-8.32 -0.33,-17.63 -0.67,-28.27 -0.33,-10.31 -0.33,-20.95 -0.33,-31.93 -0.33,-10.97 -0.33,-20.95 0,-30.26 0,-9.31 0,-16.96 0.33,-22.62 0,-5.65 0.33,-8.65 0.67,-8.65 1,0 2,0.66 3.66,2.33 1.66,1.66 2.66,2.99 3.33,3.66 2.33,2.33 5.32,5.32 9.31,8.98 3.66,3.66 6.98,6.98 9.98,9.31 2.99,2.66 6.98,5.99 11.64,10.31 4.32,4.32 8.98,8.65 13.63,12.97 4.32,4.32 8.32,8.32 11.64,11.31 13.3,13.3 27.27,26.6 41.57,40.24 14.3,13.63 28.27,26.94 41.9,39.91l64.19 0c0.33,-32.26 0.66,-65.85 1,-100.44 0.33,-34.59 0.66,-67.85 1,-99.44 0,-9.65 0,-14.64 -0.33,-14.97 -0.33,0 -3.33,0 -9.31,-0.33 -7.65,-0.33 -16.29,-0.33 -25.61,-0.66 -9.64,-0.33 -18.62,-0.33 -26.94,-0.33l-0.33 68.18c0,11.64 0,23.61 -0.33,35.92 -0.33,12.31 -0.67,23.95 -0.67,34.26 0,-10.31 0,-10.31 0,0 -0.33,0.66 -3.99,-2.33 -10.97,-8.65z"/>
  <path id="_23" class="fil1" d="M2838.65 5000.94c-6.32,2.99 -12.31,7.32 -18.29,13.63 -4.99,4.66 -8.65,9.31 -11.31,13.97 -2.66,4.99 -4.32,11.31 -5.32,19.29 -0.67,9.65 -1,20.62 -1,32.92 -0.33,12.31 -0.33,23.62 -0.33,34.59 0,6.98 0,13.97 0,21.28 0,7.32 0.33,13.64 1.33,18.63 2,14.63 7.31,25.94 15.63,33.59 8.32,7.98 19.29,13.97 33.26,17.63 7.65,2.33 14.97,3.33 21.95,2.99 6.98,0 16.29,0 27.27,0l49.56 0c26.6,0 48.55,-0.33 65.85,-0.66 17.3,-0.33 27.6,-0.66 30.6,-1.33 6.32,-1 13.3,-3.32 20.62,-6.98 7.31,-3.32 12.97,-6.98 16.63,-10.64 3.99,-3.66 7.65,-8.98 10.64,-15.63 2.99,-6.32 4.99,-12.97 5.99,-19.62 1,-9.31 1.33,-19.95 1.33,-31.59 0,-11.64 0,-22.95 0,-33.59 0,-8.98 0,-17.3 -0.33,-24.61 -0.33,-12.3 -2,-22.28 -4.32,-30.27 -2.66,-7.98 -7.65,-15.3 -14.64,-21.95 -4.32,-4.32 -9.31,-8.31 -14.3,-11.3 -4.99,-2.99 -11.31,-4.99 -18.96,-5.99 -7.32,-1 -14.64,-1.33 -21.95,-1.33 -7.65,0 -16.3,0 -25.94,0l-46.89 0c-15.3,0 -30.93,0 -47.23,0.33 -16.3,0.33 -31.26,0.33 -44.9,0.33 13.63,0 13.63,0 0,0 -10.31,1.67 -18.63,3.66 -24.94,6.32zm201.54 97.45c0,5.65 0,10.97 -0.33,16.29 -0.33,5.32 -0.33,9.65 -0.66,13.3 -0.66,6.98 -1,11.97 -1.33,14.63 -0.33,2.99 -1.66,6.32 -4.32,9.98 -2,2.99 -3.99,4.99 -5.66,6.65 -1.66,1.66 -4.99,2.66 -9.31,2.99 -4.32,0.66 -11.64,1 -21.62,1 -10.31,0.33 -24.61,0.33 -43.57,0.33l-37.91 0c-9.31,0 -16.3,0 -20.62,-0.33 -7.65,-0.33 -13.3,-1.67 -16.96,-3.66 -3.66,-2 -6.32,-5.32 -7.98,-9.64 -1.66,-4.32 -2.66,-10.31 -3.32,-17.96 -1,-5.65 -1.33,-12.31 -1.33,-19.95 0,-7.65 0,-14.63 0.33,-21.62 0.33,-5.66 0.33,-11.97 0.66,-18.29 0.33,-6.32 1,-11.64 2,-15.63 1,-2.99 2.66,-5.99 5.65,-8.98 2.99,-3 5.66,-4.99 8.65,-5.99 1,-0.33 4.65,-0.33 11.64,-0.66 8.98,0 18.96,0 29.93,-0.33 10.64,0 21.29,0 31.6,0 16.96,0.33 30.26,0.33 39.91,0.33 9.64,0 16.63,0 20.95,0.33 3.32,0.33 5.99,0.33 7.65,0.66 1.66,0.33 3.33,1 4.99,2.33 5.65,3.66 8.65,8.98 9.64,15.3 0.67,6.65 1,14.97 1.33,24.94 -0.33,-9.98 -0.33,-9.98 0,0 0,3.99 0,8.65 0,13.97z"/>
  <path id="_24" class="fil1" d="M3390.06 5209.13l0 -9.31c0,-6.32 0.33,-12.97 0.67,-19.95 0.33,-6.65 1,-12.97 1.33,-18.96l-88.8 1c-12.97,0 -26.27,0 -39.91,0 -13.63,0.33 -26.27,0.33 -37.91,0 -8.32,0 -12.97,0 -13.3,-0.33 -0.33,-0.33 -0.33,-2.99 -0.66,-8.65 -1,-11.64 -1.33,-23.28 -1.33,-35.25 0,-11.64 0,-25.27 0,-40.91l-0.33 -83.81 -65.19 -0.66 0 216.84 245.44 0z"/>
  <path id="_25" class="fil1" d="M3456.57 5000.94c-6.32,2.99 -12.31,7.32 -18.29,13.63 -4.99,4.66 -8.65,9.31 -11.31,13.97 -2.66,4.99 -4.32,11.31 -5.32,19.29 -0.67,9.65 -1,20.62 -1,32.92 -0.33,12.31 -0.33,23.62 -0.33,34.59 0,6.98 0,13.97 0,21.28 0,7.32 0.33,13.64 1.33,18.63 2,14.63 7.31,25.94 15.63,33.59 8.32,7.98 19.29,13.97 33.26,17.63 7.65,2.33 14.97,3.33 21.95,2.99 6.98,0 16.29,0 27.27,0l49.56 0c26.6,0 48.55,-0.33 65.85,-0.66 17.3,-0.33 27.6,-0.66 30.6,-1.33 6.32,-1 13.3,-3.32 20.62,-6.98 7.31,-3.32 12.97,-6.98 16.63,-10.64 3.99,-3.66 7.65,-8.98 10.64,-15.63 2.99,-6.32 4.99,-12.97 5.99,-19.62 1,-9.31 1.33,-19.95 1.33,-31.59 0,-11.64 0,-22.95 0,-33.59 0,-8.98 0,-17.3 -0.33,-24.61 -0.33,-12.3 -2,-22.28 -4.32,-30.27 -2.66,-7.98 -7.65,-15.3 -14.64,-21.95 -4.32,-4.32 -9.31,-8.31 -14.3,-11.3 -4.99,-2.99 -11.31,-4.99 -18.96,-5.99 -7.32,-1 -14.64,-1.33 -21.95,-1.33 -7.65,0 -16.3,0 -25.94,0l-46.89 0c-15.3,0 -30.93,0 -47.23,0.33 -16.3,0.33 -31.26,0.33 -44.9,0.33 13.63,0 13.63,0 0,0 -10.31,1.67 -18.63,3.66 -24.94,6.32zm201.54 97.45c0,5.65 0,10.97 -0.33,16.29 -0.33,5.32 -0.33,9.65 -0.66,13.3 -0.66,6.98 -1,11.97 -1.33,14.63 -0.33,2.99 -1.66,6.32 -4.32,9.98 -2,2.99 -3.99,4.99 -5.66,6.65 -1.66,1.66 -4.99,2.66 -9.31,2.99 -4.32,0.66 -11.64,1 -21.62,1 -10.31,0.33 -24.61,0.33 -43.57,0.33l-37.91 0c-9.31,0 -16.3,0 -20.62,-0.33 -7.65,-0.33 -13.3,-1.67 -16.96,-3.66 -3.66,-2 -6.32,-5.32 -7.98,-9.64 -1.66,-4.32 -2.66,-10.31 -3.32,-17.96 -1,-5.65 -1.33,-12.31 -1.33,-19.95 0,-7.65 0,-14.63 0.33,-21.62 0.33,-5.66 0.33,-11.97 0.66,-18.29 0.33,-6.32 1,-11.64 2,-15.63 1,-2.99 2.66,-5.99 5.65,-8.98 2.99,-3 5.66,-4.99 8.65,-5.99 1,-0.33 4.65,-0.33 11.64,-0.66 8.98,0 18.96,0 29.93,-0.33 10.64,0 21.29,0 31.6,0 16.96,0.33 30.26,0.33 39.91,0.33 9.64,0 16.63,0 20.95,0.33 3.32,0.33 5.99,0.33 7.65,0.66 1.66,0.33 3.33,1 4.99,2.33 5.65,3.66 8.65,8.98 9.64,15.3 0.67,6.65 1,14.97 1.33,24.94 -0.33,-9.98 -0.33,-9.98 0,0 0,3.99 0,8.65 0,13.97z"/>
  <path id="_26" class="fil1" d="M3877.94 5162.9c-9.98,0 -17.29,0 -21.95,-0.33 -4.65,-0.33 -7.98,-0.66 -9.64,-1 -5.32,-1.33 -9.31,-3.99 -12.31,-7.65 -2.99,-3.66 -5.99,-7.98 -8.65,-12.64l-0.66 -40.58 0 -23.61c0,-3.99 0,-7.32 0,-10.31 -0.33,-2.99 0.33,-5.65 1.33,-7.98 1.67,-3.99 4.32,-7.31 7.65,-9.98 3.32,-2.66 6.98,-5.32 10.64,-7.98 12.64,0 26.27,0 41.24,-0.33 14.97,0 29.93,0 45.23,-0.33 15.3,0 30.26,0 44.56,-0.33 14.3,-0.33 26.94,-0.33 38.25,-0.66 16.96,-0.33 25.94,-1 26.27,-1.33 1,-1 2,-3.66 3.33,-7.32 0.66,-2.66 1.66,-5.99 3.33,-9.64 1.33,-3.66 2.66,-6.98 3.66,-9.64 1,-2 2,-4.66 3.33,-7.65 1,-2.99 1.66,-5.65 1.66,-7.65 0,-0.66 -2,-1.33 -6.32,-1.66 -4.32,-0.33 -9.31,-0.33 -15.3,-0.33 -6.32,0 -11.97,0 -17.63,0 -5.65,0 -9.98,0 -12.97,0l-59.86 0c-19.62,0 -39.58,0 -60.53,0.33 -20.95,0.33 -39.91,0.33 -57.2,0.33 -12.97,1 -24.28,4.32 -34.26,10.31 -9.98,6.32 -17.63,13.97 -22.61,23.61 -2.99,5.32 -4.65,10.97 -5.32,17.3 -0.66,6.32 -1.33,13.64 -1.66,22.62 -0.66,11.64 -1,24.61 -1,38.91 0,14.3 0.33,27.27 1,38.91 0.66,12.3 2.99,22.28 6.65,29.93 3.66,7.98 9.65,14.3 17.3,19.29 7.65,4.99 16.96,8.65 28.27,10.65 11.3,2 23.61,2.99 37.25,3.32 13.3,0.33 26.94,0.67 40.91,0.67l93.46 0c15.63,0 29.6,0 42.24,-0.33 6.98,0 12.97,0 17.96,0 4.99,0 9.64,-0.33 13.97,-0.66l0 -113.74 -66.52 0c0,8.98 0,18.29 -0.33,28.27 -0.33,9.98 -0.33,18.96 -0.67,27.27 -0.33,6.65 -0.33,10.31 -0.66,10.64 0,0.33 -2,0.33 -6.32,0.67 -4.32,0.33 -9.98,0.33 -16.29,0.33 -6.65,0.33 -13.3,0.33 -20.29,0.33 -6.98,0 -12.97,0 -18.29,0 -5.65,0 -9.31,0 -10.97,0 1.67,0 1.67,0 0,0l-41.24 0z"/>
  <polygon id="_27" class="fil1" points="4158.97,5209.13 4158.97,4993.62 4093.12,4993.62 4093.12,5209.13 "/>
  <path id="_28" class="fil1" d="M4423.04 5117.67l0 -34.25c0,-3.99 0,-5.99 -0.33,-6.32 -26.27,-0.33 -53.55,-0.66 -81.15,-1 -27.94,-0.33 -55.54,-0.33 -82.48,-0.66l-0.66 -35.25 189.9 0c0.33,-7.65 1,-15.3 1.66,-23.62 0.33,-7.98 1,-15.63 1.67,-22.95l-259.08 0c0.33,35.92 0.33,71.84 0.66,107.42 0.33,35.92 0.67,71.84 1,107.42 44.57,0 89.13,0 133.37,0.33 44.23,0.33 88.8,0.33 133.03,0.66l0 -9.64c0,-5.99 0.33,-12.31 0.66,-18.62 0.33,-6.32 1,-12.64 1.33,-18.29 -67.18,-0.33 -134.36,-0.33 -201.87,-0.66 0,-7.32 0,-14.64 -0.33,-21.62 -0.33,-6.98 -0.33,-14.3 -0.66,-21.28l116.4 0c7.98,0 15.63,0 22.95,-0.33 6.98,-0.33 13.64,-0.33 19.29,-0.33 -5.65,0 -5.65,0 0,0l4.65 -1z"/>
  <path id="_29" class="fil1" d="M4763.26 5038.85c0.66,-0.33 1.33,-2.33 1.66,-6.65 0.33,-3.99 0.33,-9.65 0.33,-16.96l0.66 -22.95 -98.77 0c-18.29,0.33 -37.25,0.33 -57.2,0.66 -20.28,0.33 -38.58,0.66 -55.2,0.66 -20.95,1.67 -36.92,8.98 -47.89,21.95 -6.65,7.32 -10.97,17.3 -12.97,29.6 -2.33,12.64 -1.33,25.28 2.33,37.91 2.66,9.31 8.98,17.63 19.29,24.61 7.32,4.99 14.63,8.65 21.62,10.65 6.98,2 15.96,3.32 27.61,3.66 12.97,0.66 26.94,1 42.57,1.33 15.3,0.33 30.6,0.33 45.9,0.33 14.97,0.33 28.93,0.67 41.24,1.33 4.65,0.33 7.65,0.66 9.31,1 4.32,1.33 7.31,4.32 8.98,8.98 1.66,4.65 2,9.31 1,14.3 -1,4.99 -3.33,8.65 -6.98,10.97 -1,0.33 -4.66,0.66 -10.97,1 -6.65,0.33 -17.63,0.66 -32.92,0.66 -15.96,0.33 -33.93,0.33 -53.55,0.33 -19.62,0.33 -39.58,0.33 -59.53,0.33 -20.29,0.33 -38.91,0.33 -55.87,0.33 -0.33,15.3 -0.67,30.93 -1,46.56 79.48,-0.33 158.97,-0.66 239.12,-1l8.98 -3.32c16.96,-6.32 28.27,-17.3 33.92,-32.59 1.67,-4.65 2.66,-8.65 2.99,-11.97 0.33,-3.32 0.33,-8.65 0.33,-15.63 0,-6.32 0,-11.31 -0.33,-15.63 -0.33,-4.32 -1.33,-8.32 -2.66,-12.64 -3.99,-10.31 -9.98,-18.62 -18.29,-24.61 -8.31,-5.65 -18.96,-9.64 -32.59,-11.31 -2.33,-0.33 -7.32,-0.66 -15.63,-1 -22.62,-1 -45.9,-1.66 -70.17,-2 -24.28,-0.33 -47.89,-0.33 -71.17,-0.66l-4.99 -4.65c-5.99,-6.32 -7.98,-13.3 -6.32,-21.29 0.67,-3.99 2,-6.65 3.66,-7.98 1.66,-1 5.32,-2 10.31,-2.33 12.31,-1 25.94,-1.66 40.24,-2 14.3,-0.33 28.93,-0.33 43.9,-0.33 14.64,0 28.93,0 42.57,0 9.64,0 19.29,0 29.26,0 9.98,0.33 19.29,0.33 27.94,0.33 -8.65,0 -8.65,0 0,0l9.31 0z"/>
 </g>
</svg>
