<?xml version="1.0" encoding="UTF-8"?>
<!DOCTYPE svg PUBLIC "-//W3C//DTD SVG 1.1//EN" "http://www.w3.org/Graphics/SVG/1.1/DTD/svg11.dtd">
<!-- Creator: CorelDRAW -->
<svg xmlns="http://www.w3.org/2000/svg" xml:space="preserve" width="152.88mm" height="132.639mm" version="1.1" style="shape-rendering:geometricPrecision; text-rendering:geometricPrecision; image-rendering:optimizeQuality; fill-rule:evenodd; clip-rule:evenodd"
viewBox="0 0 2507.54 2175.55"
 xmlns:xlink="http://www.w3.org/1999/xlink"
 xmlns:xodm="http://www.corel.com/coreldraw/odm/2003">
 <defs>
  <style type="text/css">
   <![CDATA[
    .fil0 {fill:white;fill-rule:nonzero}
   ]]>
  </style>
 </defs>
 <g id="Katman_x0020_1">
  <metadata id="CorelCorpID_0Corel-Layer"/>
  <g id="_38751455808">
   <path class="fil0" d="M621.95 100.61c194.66,-62.3 398.66,-90.76 602.5,-99.24 198.55,-6.46 398.35,9.57 592.32,53.43 -17.26,8.32 -33.37,26.13 -53.97,20.61 -105.23,-17.73 -211.46,-30.49 -318.01,-36.79 -191.71,-12.06 -384.51,2.33 -573.57,35.39 -133.22,25.35 -264.12,63.15 -390.5,112.61 -11.28,199.25 34.92,399.67 121.95,578.55 79.09,165.03 198.32,309.77 341.73,423.16 99.55,78.16 209.52,143.18 324.54,195.91 193.81,-96.05 373.78,-227.02 507.39,-398.66 121.01,-151.97 207.96,-332.01 243.27,-523.56 14.39,-6.53 28.85,-12.83 43.4,-19.21 -32.43,221.81 -134.93,430.16 -279.05,600.71 -138.36,166.43 -318.79,293.82 -512.91,387.23 -204.31,-92.08 -396.1,-220.56 -540.05,-394.07 -202.37,-238.61 -306.58,-556.7 -288.15,-868.8 57.78,-27.22 118.45,-47.52 179.11,-67.2l0 -0.08z"/>
   <path class="fil0" d="M514.78 206c211.78,-87.88 440.97,-126.61 669.16,-137.97 180.74,-7.15 362.96,3.34 540.21,40.6 -27.38,5.99 -55.37,14.86 -83.61,9.72 -208.9,-29.09 -421.53,-33.13 -630.97,-7.31 -160.21,15.94 -317.47,56.07 -467.33,114.33 3.03,154.92 33.6,310.16 96.83,452.01 44.1,93.17 99.55,181.99 171.8,255.95 95.19,97.37 210.53,172.42 329.99,236.66 41.92,22.86 86.64,40.29 131.12,57.47 99.47,-47.44 194.28,-104.14 284.1,-167.99 85.32,-61.83 163.01,-134.54 226.71,-218.62 67.9,-92.47 118.68,-197.46 151.35,-307.36 5.29,-14.86 19.83,-23.25 30.64,-33.83 -13.14,95.43 -53.04,184.79 -97.53,269.4 -134.7,242.18 -351.38,432.57 -597.29,556.85 -221.42,-101.65 -422.62,-256.57 -558.87,-460.49 -133.92,-191.55 -196.69,-427.2 -196.22,-659.51l-0.08 0.08z"/>
  </g>
  <g id="_38751457408">
   <path class="fil0" d="M2204.78 59.39c34.14,-14.62 68.83,-27.92 103.59,-41.14 -22.4,45.42 -47.67,89.59 -78.16,130.04 -14.39,20.84 -40.52,26.68 -61.91,37.41 -92.16,38.19 -187.28,68.83 -282.7,97.76 -210.06,65.87 -430,96.44 -649.71,102.97 -51.64,0.23 -103.21,-1.55 -154.69,3.27 14.54,2.72 29.48,0.31 44.25,1.48 113.39,12.91 227.87,10.03 341.81,7.7 124.2,-7 247.4,-25.35 370.04,-46.04 111.06,-20.84 222.74,-41.69 330.15,-77.54 -36.94,46.04 -74.19,92.7 -119.77,130.74 -11.82,10.27 -26.21,17.26 -41.69,19.52 -145.44,22.71 -293.05,27.45 -440.04,26.05 -104.29,-0.93 -208.51,-8.63 -312.41,-18.2 -51.64,-4.59 -102.27,-16.1 -153.52,-22.71 134.39,40.13 274.07,58.41 413.21,72.64 144.5,10.34 289.63,8.01 434.28,2.02 -37.56,24.65 -75.6,48.84 -115.03,70.38 -14,9.02 -31.11,5.52 -46.66,5.21 -192.25,-13.07 -382.17,-48.69 -569.84,-91.31 -40.6,-9.41 -79.64,-25.74 -121.33,-30.18 50.47,13.77 97.99,36.09 147.53,52.34 68.36,22.71 137.11,45.26 207.19,62.3 95.66,20.69 191.17,42.15 287.76,58.41 -44.33,19.21 -88.58,39.82 -135.56,51.41 -123.97,-34.61 -241.1,-89.67 -359.78,-138.67 -50.24,-19.52 -97.22,-46.43 -147.85,-64.94 80.26,42.15 157.57,89.59 237.83,131.75 57.32,31.89 117.9,57.63 173.43,92.63 -25.35,5.91 -50.71,11.9 -76.06,17.58 -85.39,-57.71 -174.06,-110.67 -257.12,-171.72 39.51,31.96 74.12,69.45 112.61,102.66 32.12,27.61 63.77,55.84 95.27,84.23 -19.6,8.79 -39.43,17.19 -59.03,25.9 -40.05,-57.78 -93.02,-104.37 -138.98,-157.18 18.04,25.66 37.64,51.64 43.71,83.14 4.43,24.89 3.03,50.32 2.33,75.52 -40.29,-62.84 -69.61,-133.22 -121.01,-188.37 -47.13,-49.93 -104.29,-98.23 -174.68,-107.72 -11.9,-1.55 -23.72,-3.11 -35.39,-5.52 17.19,-8.4 37.25,-8.01 54.36,-16.57 17.81,-12.52 25.66,-33.99 36.94,-51.87 15.79,-4.82 31.81,-9.18 47.29,-15.09 -30.25,0.78 -60.35,5.83 -89.59,13.22 -39.51,10.03 -70.54,38.58 -108.8,51.56 -27.22,12.29 -57.55,6.14 -86.25,6.14 29.86,-32.28 56.15,-69.76 95.35,-91.62 73.42,-43.94 156.94,-66.96 238.84,-89.21 -39.35,20.69 -81.74,36.24 -117.59,63 52.11,-23.18 104.37,-46.43 158.81,-64.08 94.81,-31.42 193.81,-46.2 291.88,-62.92 17.34,-3.42 34.69,-7.47 52.5,-8.09 -61.6,30.18 -129.96,41.53 -194.74,62.92 -77.54,25.43 -159.51,32.43 -237.67,55.22 61.6,-7.54 123.81,-8.87 185.49,-16.41 178.88,-22.86 352.7,-76.76 519.21,-144.97 60.66,-23.56 116.04,-58.25 173.2,-88.97 -13.69,34.45 -29.71,67.9 -47.75,100.33 -5.13,8.17 -9.49,18.43 -19.52,21.47 -114.25,46.2 -232.23,83.22 -352.62,109.89 -123.58,30.18 -249.73,49.85 -376.42,61.28 270.18,-7.15 538.5,-63.62 790.25,-161.69 98.69,-38.26 197.46,-76.06 294.99,-117.2l-0.23 -0.15z"/>
   <path class="fil0" d="M927.98 414.27c6.69,-10.42 9.33,-23.49 19.91,-31.11 -2.57,10.97 -1.01,25.35 -10.73,33.29 -10.89,7.78 -24.65,9.41 -37.33,12.52 9.26,-4.98 19.75,-8.01 28.15,-14.62l-0 -0.08z"/>
   <path class="fil0" d="M722.9 453.39c44.33,-18.51 88.74,8.71 126.85,29.24 25.74,4.12 52.26,4.2 77.38,11.67 70.46,19.52 128.01,73.65 159.67,138.59 -40.91,-42.23 -95.97,-65.41 -149.71,-86.48 -20.38,-7.93 -42.39,-10.73 -63.7,-14.46 35.7,-5.99 73.18,-3.73 105.23,14.31 -17.73,-17.73 -42,-26.83 -66.88,-26.99 -50.94,-0.93 -102.43,-0.08 -152.2,11.82 25.43,-18.67 56.39,-25.28 86.09,-33.75 -1.32,-3.5 -3.97,-10.5 -5.29,-14 -0.7,3.19 -2.18,9.49 -2.8,12.6 -37.88,3.27 -76.45,15.01 -104.53,41.53 -10.5,12.06 -9.8,29.09 -12.75,43.94 -34.69,-33.75 -33.68,-96.2 2.57,-127.86l0.08 -0.15z"/>
  </g>
  <path class="fil0" d="M1267.93 692.39c5.06,37.41 4.98,75.28 6.46,113 22.24,-1.4 41.92,9.57 57.71,24.27 12.52,-11.9 24.97,-23.72 38.58,-34.45 -11.67,12.75 -23.64,25.04 -35.93,37.18 7,8.87 13.14,18.67 21.47,26.36 70.15,1.55 140.22,4.82 210.45,5.13 -69.61,1.94 -139.29,2.18 -208.9,0.47 3.5,10.65 6.92,21.31 10.11,32.04 100.25,1.24 200.58,1.48 300.75,2.02 -22.17,5.76 -45.42,-0.31 -68.05,1.48 -77.46,4.43 -155.08,4.98 -232.7,6.46 -4.12,12.75 -8.71,25.2 -13.92,37.56 18.98,0.31 38.03,0.31 57.01,1.4 -19.52,0.62 -38.96,0.39 -58.41,0.08 -5.21,6.46 -10.42,12.91 -15.63,19.37 5.29,6.07 15.79,18.2 21.15,24.34 -5.99,-5.37 -17.97,-16.02 -23.95,-21.39 -17.34,12.75 -35.93,25.43 -58.17,26.6 -3.27,55.92 -2.18,111.99 -3.03,167.83 0.31,-17.26 -7.7,-33.68 -4.51,-50.86 1.79,-39.2 -1.48,-78.55 -1.71,-117.75 -22.09,0.47 -40.83,-12.05 -57.94,-24.5 -8.79,9.41 -17.66,18.9 -27.22,27.45 7.78,-10.65 16.8,-20.37 25.9,-30.02 -5.76,-7.31 -11.28,-14.62 -16.88,-22.01 -25.9,1.24 -51.87,2.02 -77.77,0.78 25.35,-0.78 50.71,-0.54 76.06,-1.94 -4.59,-11.9 -9.02,-23.8 -12.91,-35.85 -102.27,-2.41 -204.7,-4.35 -306.89,-8.71 102.35,-0.78 204.85,-0.39 307.2,-2.33 2.64,-10.73 5.44,-21.54 8.48,-32.2 -72.64,1.4 -145.44,2.18 -217.99,0 73.57,-1.55 147.07,-3.73 220.56,-5.29 6.22,-8.94 12.6,-17.73 19.13,-26.36 -15.01,-16.18 -30.64,-31.65 -45.57,-47.83 16.8,14.39 32.35,30.02 48.45,45.19 15.09,-14.93 34.61,-24.11 56,-24.42 1.09,-37.64 3.5,-75.36 2.64,-113l-0 -0.08zm-70.46 165.97l0 0c21.78,-1.01 43.55,-2.02 65.41,-1.48 0.39,-15.55 0.7,-31.11 0.93,-46.59 -28.39,5.52 -50.94,24.27 -66.34,48.06zm78.24 -48.53l0 0c0.08,15.63 0.31,31.19 0.54,46.74 22.71,-0.31 45.34,1.09 67.97,1.55 -17.11,-22.94 -38.42,-45.34 -68.6,-48.3l0.08 0zm-80.42 53.97l0 0c-3.5,11.12 -6.77,22.24 -9.72,33.52 16.57,-0.78 33.75,-1.63 49.23,-8.17 10.27,-7.47 17.97,-17.97 27.07,-26.75 -22.24,0.31 -44.41,0.78 -66.57,1.4l-0 0zm81.89 -1.71l0 0c10.73,9.41 19.83,20.92 31.26,29.71 16.1,3.66 32.66,3.34 49.07,4.51 -3.19,-10.73 -6.53,-21.39 -10.03,-31.96 -23.41,-0.78 -46.9,-1.24 -70.31,-2.26zm-91.46 45.73l0 0c3.73,11.43 8.01,22.63 12.99,33.52 22.32,-0.08 44.64,-0.23 66.96,0.47 -8.24,-7.39 -16.41,-14.78 -24.5,-22.4 -13.45,-16.33 -37.18,-9.18 -55.45,-11.59l-0 0zm123.19 2.18l0 0c-10.34,11.28 -21.54,21.78 -32.9,32.04 22.01,1.4 43.94,2.18 66.03,3.03 7.15,-11.67 12.21,-24.42 16.41,-37.41 -16.57,0 -33.05,0.78 -49.46,2.26l-0.08 0.08zm-108.26 35.54l0 0c16.41,21.31 38.89,37.25 65.25,43.32 -0.08,-14.46 -0.31,-29.01 -0.54,-43.47 -21.62,0.39 -43.16,0.08 -64.78,0.16l0.08 0zm75.36 -0.08l0 0c-0.31,14.46 -0.54,28.93 -0.54,43.39 26.29,-4.82 47.83,-21.62 65.41,-40.83 -21.62,-0.54 -43.24,-1.63 -64.78,-2.57l-0.08 0z"/>
  <g id="_38751457760">
   <path class="fil0" d="M0.23 1544.62c118.37,0.08 236.74,-0.08 355.03,0 0.23,19.99 0.23,39.9 0,59.89 -88.74,0.08 -177.48,-0.31 -266.14,0.23 0.08,20.06 0.08,40.21 0,60.35 72.17,0 144.35,-0.23 216.44,0.08 -2.8,22.48 -20.69,38.34 -32.2,56.77 -61.52,0.16 -123.04,-0.08 -184.55,0.08 -0.31,36.09 -0.16,72.1 -0.86,108.18 -29.32,-0.16 -58.64,-0.16 -87.96,-0.16 0.08,-95.12 -0.08,-190.23 0.23,-285.35l0 -0.08z"/>
   <path class="fil0" d="M484.06 1544.46c33.83,-0.08 67.66,-0.39 101.57,0.31 66.03,94.65 132.06,189.3 196.53,284.96 -34.22,0.08 -68.44,0.16 -102.66,0.16 -14.54,-19.21 -26.44,-40.21 -41.45,-59.11 -4.2,-8.24 -14,-5.52 -21.39,-6.22 -61.6,0.23 -123.27,-3.03 -184.79,0.7 -18.12,19.21 -29.55,43.55 -45.11,64.78 -32.9,-0.16 -65.8,0.08 -98.69,-0.08 64.08,-96.05 128.48,-191.86 196.07,-285.5l-0.08 -0zm-18.67 164.96l0 0c45.65,-0.23 91.38,-1.87 136.88,1.01 -25.2,-31.5 -45.5,-66.34 -68.91,-99.08 -26.99,29.48 -44.49,65.95 -67.97,98.15l0 -0.08z"/>
   <path class="fil0" d="M808.68 1544.54c30.41,-0.08 60.9,-0.08 91.38,-0.16 0.31,75.52 0.54,151.04 -0.16,226.55 79.02,-0.23 158.11,0.08 237.13,0.08 0.23,19.75 0.08,39.43 -0.08,59.19 -109.5,-0.31 -218.93,-0.08 -328.43,-0.16 -0.08,-95.12 0.08,-190.23 0.16,-285.43l0 -0.08z"/>
   <path class="fil0" d="M1184.09 1544.62c29.94,0.08 60.04,0 90.06,-0.16 0.31,40.99 0.08,81.97 0.23,123.04 12.13,-1.17 25.59,-0.31 35.54,-8.71 49.15,-35.7 96.75,-73.34 145.9,-108.96 7.85,-7.31 19.05,-4.98 28.85,-5.29 29.01,0.31 57.94,0 86.95,0.47 -59.34,47.13 -120.08,92.24 -180.9,137.35 65.25,46.43 128.95,95.35 190.08,147.07 -37.64,0.54 -75.28,1.01 -112.93,0.31 -8.32,0.16 -14.86,-5.6 -21.31,-9.88 -39.9,-29.63 -77.23,-62.69 -118.29,-90.76 -15.17,-12.75 -35.15,-12.99 -53.9,-12.99 -0.54,38.03 0,76.06 -1.17,114.01 -29.94,-0.08 -59.89,-0.08 -89.83,-0.31 -0.23,-95.04 0.78,-190 0.54,-285.04l0.16 -0.15z"/>
   <path class="fil0" d="M1660.99 1547.65c50.71,-7.31 102.27,-3.11 153.37,-4.2 44.8,1.17 90.22,-3.27 134.47,5.37 28.85,5.29 55.69,26.13 60.9,56.15 5.99,37.18 3.11,75.13 3.73,112.61 -1.01,29.16 0.78,62.69 -20.3,85.78 -22.4,22.4 -56.15,25.43 -86.17,26.68 -69.3,0.54 -138.67,0.31 -208.04,0.23 -34.22,-0.86 -75.6,-2.64 -97.61,-33.13 -19.52,-30.41 -13.3,-68.52 -14.54,-102.74 1.55,-35.93 -5.06,-74.27 10.73,-107.95 11.43,-24.27 38.58,-34.76 63.38,-38.81l0.08 -0zm40.21 57.71l0 0c-15.48,5.06 -21.15,22.48 -20.69,37.33 -0.54,30.88 -1.17,61.75 0.39,92.55 0.16,21.39 20.61,37.18 41.22,35.85 52.03,0.39 104.14,0.31 156.25,-0.08 18.28,1.48 37.64,-10.5 39.43,-29.71 3.5,-28.93 1.4,-58.17 1.87,-87.26 -0.78,-14.54 0.62,-31.58 -10.5,-42.77 -11.2,-10.65 -27.84,-10.11 -42.23,-10.73 -40.68,-0.08 -81.43,0.23 -122.1,0.08 -14.62,0.23 -29.71,-0.08 -43.63,4.67l0 0.08z"/>
   <path class="fil0" d="M2068.52 1544.54c30.02,1.55 61.36,-3.5 90.61,2.41 86.72,63.77 173.51,127.62 259.14,192.95 -0.08,-65.02 0.78,-130.11 0.23,-195.13 29.63,-0.08 59.26,-0.31 88.89,-0.39 0.16,95.27 -0.08,190.62 0.16,285.81 -32.9,-0.23 -65.64,-0.31 -98.46,-0.08 -82.28,-66.88 -168.07,-129.26 -252.29,-193.73 0.39,64.55 0.54,129.1 0.54,193.58 -29.63,-0.16 -59.26,-0.08 -88.82,-0.31 -0.78,-95.04 0.08,-190.08 0.08,-285.12l-0.08 0z"/>
  </g>
  <path class="fil0" d="M131.69 2040.57c2.36,-3.2 4.72,-6.39 7.08,-9.86 2.36,-3.47 4.44,-6.8 6.39,-10.14l30.27 0c4.31,0 8.89,0 13.75,0 4.72,0.14 9.03,0.14 12.78,0.14 2.92,0.14 4.44,0.14 4.58,0.28 0.55,0.14 1.25,0.69 1.94,1.67 0.69,0.97 1.11,1.67 1.53,2.22 1.67,2.22 3.47,4.58 5.42,7.22 1.81,2.64 3.61,5 5.28,7.22 0.42,0.55 0.83,0.83 1.25,0.97 0.42,0.14 1.25,0.28 2.5,0.28 1.25,0.14 3.47,0.14 6.53,0 3.75,0 7.64,-0.14 11.67,-0.28 3.89,-0.14 7.5,-0.42 10.83,-0.55 -0.83,-0.97 -1.53,-1.81 -1.94,-2.36 -0.56,-0.55 -1.11,-1.25 -1.67,-1.94 -0.56,-0.69 -1.39,-1.81 -2.5,-3.33 -2.08,-2.64 -4.03,-5.56 -6.11,-8.61 -2.08,-2.92 -4.17,-5.83 -6.11,-8.75 -2.92,-4.03 -6.11,-8.61 -9.44,-13.61 -3.47,-4.86 -6.67,-9.72 -9.72,-14.44 -3.06,-4.72 -5.69,-8.75 -7.78,-12.08 -1.95,-2.92 -3.47,-5.28 -4.72,-7.22 -1.25,-1.94 -2.36,-3.75 -3.33,-5.28 -0.97,-1.53 -2.08,-3.2 -3.06,-4.86 -1.11,-1.53 -2.36,-3.47 -3.75,-5.55 -0.55,-0.56 -1.25,-0.83 -2.22,-0.97 -0.97,0 -2.22,0 -3.75,-0.14 -2.08,0 -5.42,0 -9.72,-0.14l-10.42 0c-1.81,0 -2.92,0 -3.47,-0.14 -0.69,0 -1.11,0.14 -1.25,0.28 -0.14,0.28 -0.56,0.83 -1.11,1.67 -1.25,1.95 -2.36,3.47 -3.06,4.72 -0.69,1.25 -1.94,3.06 -3.47,5.56 -4.03,6.25 -8.33,12.5 -12.78,18.75 -4.44,6.39 -8.75,12.78 -12.91,19.02 -16.25,23.75 -25.14,36.52 -26.66,38.19 -0.83,0.83 -1.25,1.39 -1.25,1.67 0,0.14 0.69,0.14 1.94,0.28 1.25,0.14 2.92,0.14 4.72,0.14 1.81,0 3.47,0 5.14,0 1.53,0 2.78,0 3.47,0 -0.69,0 -0.69,0 0,0l15.14 0zm62.77 -42.08c0.83,1.53 1.25,2.36 1.25,2.5 0,0.83 -0.56,1.25 -1.81,1.25 -1.25,0 -2.92,0 -5.28,0.14 -3.75,0.14 -8.19,0.14 -13.33,0.14 -6.25,0 -10.83,0 -13.47,-0.14 -1.81,-0.14 -3.2,-0.28 -4.17,-0.42 -0.97,-0.14 -0.83,-0.83 0.14,-1.94 0.42,-0.42 1.95,-2.92 4.86,-7.5 2.92,-4.58 6.81,-10.83 11.94,-18.89 0.28,-0.42 0.7,-1.11 1.25,-1.94 0.42,-0.7 0.97,-1.11 1.39,-1.11 0.14,0 0.83,0.83 1.94,2.36 1.81,2.92 3.89,6.25 6.11,10.14 2.22,3.89 4.3,7.36 6.25,10.28 -1.95,-2.92 -1.95,-2.92 0,0 1.11,1.94 2.08,3.61 2.92,5.14z"/>
  <path id="_1" class="fil0" d="M249.87 1951.14c-1.67,0.14 -3.47,0.14 -5.42,0.28 1.11,1.81 2.08,3.33 3.06,4.86 0.97,1.53 2.08,3.19 3.33,5.14 7.64,12.08 15.55,24.3 23.47,36.94 7.92,12.64 15.83,25 23.75,37.22 1.81,2.78 2.92,4.44 3.33,4.86 0.28,0.42 1.53,0.56 3.75,0.69 2.08,0.14 4.86,0.14 8.19,0 3.19,0 6.53,0 10,-0.14 3.47,0 6.39,0 8.89,0 4.03,-6.39 8.05,-12.78 12.08,-19.03 4.03,-6.25 7.92,-12.64 11.67,-18.89 4.03,-6.81 8.33,-13.89 12.91,-21.39 4.58,-7.36 9.03,-14.3 13.33,-20.69 1.53,-2.36 2.78,-4.03 3.47,-5 0.7,-0.97 1.81,-2.22 3.06,-3.75 0.42,-0.69 0.69,-0.97 0.69,-1.11 0,-0.14 -0.97,-0.14 -2.78,-0.28 -1.94,0 -4.31,0 -7.22,-0.14 -2.92,0 -5.83,0 -8.75,-0.14 -3.05,0 -5.69,0 -7.92,0 -2.36,0 -3.75,0 -4.44,0 -3.89,6.25 -7.92,12.91 -12.08,20 -4.17,7.08 -8.33,14.3 -12.5,21.53 -4.31,7.36 -8.33,14.3 -12.36,20.97 -0.42,0.69 -0.97,1.67 -1.67,2.64 -0.7,1.11 -1.25,2.08 -1.81,2.78 -0.69,0.69 -1.11,0.97 -1.39,0.69 -0.14,-0.14 -0.69,-0.97 -1.8,-2.78 -1.53,-2.36 -3.06,-4.86 -4.72,-7.78 -1.81,-2.92 -3.47,-5.69 -5.14,-8.33 -4.86,-8.19 -9.86,-16.53 -15,-24.86 -5.14,-8.33 -10.28,-16.53 -15.14,-24.58l-3.75 0c-1.94,0 -4.44,0 -7.36,0 -2.92,0.14 -5.56,0.14 -7.78,0.28 2.22,-0.14 2.22,-0.14 0,0 -2.36,0 -4.31,0 -5.97,0z"/>
  <polygon id="_2" class="fil0" points="424.71,2040.57 424.71,1950.58 397.21,1950.58 397.21,2040.57 "/>
  <path id="_3" class="fil0" d="M462.9 2040.57c2.36,-3.2 4.72,-6.39 7.08,-9.86 2.36,-3.47 4.44,-6.8 6.39,-10.14l30.27 0c4.31,0 8.89,0 13.75,0 4.72,0.14 9.03,0.14 12.78,0.14 2.92,0.14 4.44,0.14 4.58,0.28 0.55,0.14 1.25,0.69 1.94,1.67 0.69,0.97 1.11,1.67 1.53,2.22 1.67,2.22 3.47,4.58 5.42,7.22 1.81,2.64 3.61,5 5.28,7.22 0.42,0.55 0.83,0.83 1.25,0.97 0.42,0.14 1.25,0.28 2.5,0.28 1.25,0.14 3.47,0.14 6.53,0 3.75,0 7.64,-0.14 11.67,-0.28 3.89,-0.14 7.5,-0.42 10.83,-0.55 -0.83,-0.97 -1.53,-1.81 -1.94,-2.36 -0.56,-0.55 -1.11,-1.25 -1.67,-1.94 -0.56,-0.69 -1.39,-1.81 -2.5,-3.33 -2.08,-2.64 -4.03,-5.56 -6.11,-8.61 -2.08,-2.92 -4.17,-5.83 -6.11,-8.75 -2.92,-4.03 -6.11,-8.61 -9.44,-13.61 -3.47,-4.86 -6.67,-9.72 -9.72,-14.44 -3.06,-4.72 -5.69,-8.75 -7.78,-12.08 -1.95,-2.92 -3.47,-5.28 -4.72,-7.22 -1.25,-1.94 -2.36,-3.75 -3.33,-5.28 -0.97,-1.53 -2.08,-3.2 -3.06,-4.86 -1.11,-1.53 -2.36,-3.47 -3.75,-5.55 -0.55,-0.56 -1.25,-0.83 -2.22,-0.97 -0.97,0 -2.22,0 -3.75,-0.14 -2.08,0 -5.42,0 -9.72,-0.14l-10.42 0c-1.81,0 -2.92,0 -3.47,-0.14 -0.69,0 -1.11,0.14 -1.25,0.28 -0.14,0.28 -0.56,0.83 -1.11,1.67 -1.25,1.95 -2.36,3.47 -3.06,4.72 -0.69,1.25 -1.94,3.06 -3.47,5.56 -4.03,6.25 -8.33,12.5 -12.78,18.75 -4.44,6.39 -8.75,12.78 -12.91,19.02 -16.25,23.75 -25.14,36.52 -26.66,38.19 -0.83,0.83 -1.25,1.39 -1.25,1.67 0,0.14 0.69,0.14 1.94,0.28 1.25,0.14 2.92,0.14 4.72,0.14 1.81,0 3.47,0 5.14,0 1.53,0 2.78,0 3.47,0 -0.69,0 -0.69,0 0,0l15.14 0zm62.77 -42.08c0.83,1.53 1.25,2.36 1.25,2.5 0,0.83 -0.56,1.25 -1.81,1.25 -1.25,0 -2.92,0 -5.28,0.14 -3.75,0.14 -8.19,0.14 -13.33,0.14 -6.25,0 -10.83,0 -13.47,-0.14 -1.81,-0.14 -3.2,-0.28 -4.17,-0.42 -0.97,-0.14 -0.83,-0.83 0.14,-1.94 0.42,-0.42 1.95,-2.92 4.86,-7.5 2.92,-4.58 6.81,-10.83 11.94,-18.89 0.28,-0.42 0.7,-1.11 1.25,-1.94 0.42,-0.7 0.97,-1.11 1.39,-1.11 0.14,0 0.83,0.83 1.94,2.36 1.81,2.92 3.89,6.25 6.11,10.14 2.22,3.89 4.3,7.36 6.25,10.28 -1.95,-2.92 -1.95,-2.92 0,0 1.11,1.94 2.08,3.61 2.92,5.14z"/>
  <path id="_4" class="fil0" d="M648.85 1950.3c-6.81,0.14 -13.33,0.14 -19.86,0.14l-53.33 0.14 0 20 44.44 0 0 70.13c8.75,-0.14 17.5,-0.28 26.53,-0.42 -0.14,-11.8 -0.14,-23.47 -0.28,-35.27 -0.14,-11.67 -0.14,-23.33 -0.28,-35.13 14.58,0.42 29.3,0.69 44.02,0.97l0 -2.92c0,-2.78 0.14,-5.83 0.28,-9.03 0.14,-3.19 0.42,-6.11 0.56,-8.89l-4.31 0.14c-2.64,0 -5.56,0 -8.61,0 -3.2,0.14 -6.53,0.14 -10.14,0.14 3.61,0 3.61,0 0,0 -5.97,0 -12.36,0 -19.02,0z"/>
  <polygon id="_5" class="fil0" points="726.06,2040.57 726.06,1950.58 698.57,1950.58 698.57,2040.57 "/>
  <path id="_6" class="fil0" d="M755.22 1953.64c-2.64,1.25 -5.14,3.06 -7.64,5.69 -2.08,1.95 -3.61,3.89 -4.72,5.83 -1.11,2.08 -1.8,4.72 -2.22,8.06 -0.28,4.03 -0.42,8.61 -0.42,13.75 -0.14,5.14 -0.14,9.86 -0.14,14.44 0,2.92 0,5.83 0,8.89 0,3.06 0.14,5.69 0.56,7.78 0.83,6.11 3.05,10.83 6.53,14.03 3.47,3.33 8.06,5.83 13.89,7.36 3.19,0.97 6.25,1.39 9.17,1.25 2.92,0 6.8,0 11.39,0l20.69 0c11.11,0 20.27,-0.14 27.5,-0.28 7.22,-0.14 11.53,-0.28 12.78,-0.56 2.64,-0.42 5.56,-1.39 8.61,-2.92 3.05,-1.39 5.42,-2.92 6.94,-4.44 1.67,-1.53 3.19,-3.75 4.44,-6.53 1.25,-2.64 2.08,-5.42 2.5,-8.19 0.42,-3.89 0.56,-8.33 0.56,-13.19 0,-4.86 0,-9.58 0,-14.03 0,-3.75 0,-7.22 -0.14,-10.28 -0.14,-5.14 -0.83,-9.3 -1.8,-12.64 -1.11,-3.33 -3.2,-6.39 -6.11,-9.17 -1.8,-1.8 -3.89,-3.47 -5.97,-4.72 -2.08,-1.25 -4.72,-2.08 -7.92,-2.5 -3.06,-0.42 -6.11,-0.56 -9.17,-0.56 -3.2,0 -6.81,0 -10.83,0l-19.58 0c-6.39,0 -12.92,0 -19.72,0.14 -6.81,0.14 -13.05,0.14 -18.75,0.14 5.69,0 5.69,0 0,0 -4.31,0.7 -7.78,1.53 -10.42,2.64zm84.16 40.69c0,2.36 0,4.58 -0.14,6.8 -0.14,2.22 -0.14,4.03 -0.28,5.56 -0.28,2.92 -0.42,5 -0.56,6.11 -0.14,1.25 -0.69,2.64 -1.8,4.17 -0.83,1.25 -1.67,2.08 -2.36,2.78 -0.69,0.69 -2.08,1.11 -3.89,1.25 -1.81,0.28 -4.86,0.42 -9.03,0.42 -4.3,0.14 -10.28,0.14 -18.19,0.14l-15.83 0c-3.89,0 -6.81,0 -8.61,-0.14 -3.19,-0.14 -5.55,-0.7 -7.08,-1.53 -1.53,-0.83 -2.64,-2.22 -3.33,-4.03 -0.69,-1.81 -1.11,-4.31 -1.39,-7.5 -0.42,-2.36 -0.56,-5.14 -0.56,-8.33 0,-3.19 0,-6.11 0.14,-9.03 0.14,-2.36 0.14,-5 0.28,-7.64 0.14,-2.64 0.42,-4.86 0.83,-6.53 0.42,-1.25 1.11,-2.5 2.36,-3.75 1.25,-1.25 2.36,-2.08 3.61,-2.5 0.42,-0.14 1.94,-0.14 4.86,-0.28 3.75,0 7.92,0 12.5,-0.14 4.44,0 8.89,0 13.19,0 7.08,0.14 12.64,0.14 16.66,0.14 4.03,0 6.94,0 8.75,0.14 1.39,0.14 2.5,0.14 3.19,0.28 0.69,0.14 1.39,0.42 2.08,0.97 2.36,1.53 3.61,3.75 4.03,6.39 0.28,2.78 0.42,6.25 0.56,10.42 -0.14,-4.17 -0.14,-4.17 0,0 0,1.67 0,3.61 0,5.83z"/>
  <path id="_7" class="fil0" d="M966.31 2004.46c-2.92,-2.64 -6.94,-6.53 -12.08,-11.39 -7.22,-7.22 -14.58,-14.44 -22.22,-21.8 -7.64,-7.22 -15.14,-14.3 -22.36,-21.25l-13.05 0c-3.47,0 -6.53,0 -9.17,0.14 -2.64,0.14 -3.89,0.28 -4.03,0.42 -0.14,0.14 -0.14,2.22 -0.14,6.25 -0.14,5.69 -0.14,11.94 -0.14,18.75 -0.14,6.8 -0.14,13.61 -0.14,20.14l0 44.58c8.47,0.14 16.94,0.28 25.55,0.42 0,-1.53 0,-3.89 0,-7.36 -0.14,-3.47 -0.14,-7.36 -0.28,-11.8 -0.14,-4.3 -0.14,-8.75 -0.14,-13.33 -0.14,-4.58 -0.14,-8.75 0,-12.64 0,-3.89 0,-7.08 0.14,-9.44 0,-2.36 0.14,-3.61 0.28,-3.61 0.42,0 0.83,0.28 1.53,0.97 0.69,0.69 1.11,1.25 1.39,1.53 0.97,0.97 2.22,2.22 3.89,3.75 1.53,1.53 2.92,2.92 4.17,3.89 1.25,1.11 2.92,2.5 4.86,4.3 1.8,1.81 3.75,3.61 5.69,5.42 1.81,1.81 3.47,3.47 4.86,4.72 5.56,5.56 11.39,11.11 17.36,16.8 5.97,5.69 11.8,11.25 17.5,16.66l26.8 0c0.14,-13.47 0.28,-27.5 0.42,-41.94 0.14,-14.44 0.28,-28.33 0.42,-41.52 0,-4.03 0,-6.11 -0.14,-6.25 -0.14,0 -1.39,0 -3.89,-0.14 -3.19,-0.14 -6.8,-0.14 -10.69,-0.28 -4.03,-0.14 -7.78,-0.14 -11.25,-0.14l-0.14 28.47c0,4.86 0,9.86 -0.14,15 -0.14,5.14 -0.28,10 -0.28,14.3 0,-4.31 0,-4.31 0,0 -0.14,0.28 -1.67,-0.97 -4.58,-3.61z"/>
  <path id="_8" class="fil0" d="M1078.38 2040.57c2.36,-3.2 4.72,-6.39 7.08,-9.86 2.36,-3.47 4.44,-6.8 6.39,-10.14l30.27 0c4.31,0 8.89,0 13.75,0 4.72,0.14 9.03,0.14 12.78,0.14 2.92,0.14 4.44,0.14 4.58,0.28 0.55,0.14 1.25,0.69 1.94,1.67 0.69,0.97 1.11,1.67 1.53,2.22 1.67,2.22 3.47,4.58 5.42,7.22 1.81,2.64 3.61,5 5.28,7.22 0.42,0.55 0.83,0.83 1.25,0.97 0.42,0.14 1.25,0.28 2.5,0.28 1.25,0.14 3.47,0.14 6.53,0 3.75,0 7.64,-0.14 11.67,-0.28 3.89,-0.14 7.5,-0.42 10.83,-0.55 -0.83,-0.97 -1.53,-1.81 -1.94,-2.36 -0.56,-0.55 -1.11,-1.25 -1.67,-1.94 -0.56,-0.69 -1.39,-1.81 -2.5,-3.33 -2.08,-2.64 -4.03,-5.56 -6.11,-8.61 -2.08,-2.92 -4.17,-5.83 -6.11,-8.75 -2.92,-4.03 -6.11,-8.61 -9.44,-13.61 -3.47,-4.86 -6.67,-9.72 -9.72,-14.44 -3.06,-4.72 -5.69,-8.75 -7.78,-12.08 -1.95,-2.92 -3.47,-5.28 -4.72,-7.22 -1.25,-1.94 -2.36,-3.75 -3.33,-5.28 -0.97,-1.53 -2.08,-3.2 -3.06,-4.86 -1.11,-1.53 -2.36,-3.47 -3.75,-5.55 -0.55,-0.56 -1.25,-0.83 -2.22,-0.97 -0.97,0 -2.22,0 -3.75,-0.14 -2.08,0 -5.42,0 -9.72,-0.14l-10.42 0c-1.81,0 -2.92,0 -3.47,-0.14 -0.69,0 -1.11,0.14 -1.25,0.28 -0.14,0.28 -0.56,0.83 -1.11,1.67 -1.25,1.95 -2.36,3.47 -3.06,4.72 -0.69,1.25 -1.94,3.06 -3.47,5.56 -4.03,6.25 -8.33,12.5 -12.78,18.75 -4.44,6.39 -8.75,12.78 -12.91,19.02 -16.25,23.75 -25.14,36.52 -26.66,38.19 -0.83,0.83 -1.25,1.39 -1.25,1.67 0,0.14 0.69,0.14 1.94,0.28 1.25,0.14 2.92,0.14 4.72,0.14 1.81,0 3.47,0 5.14,0 1.53,0 2.78,0 3.47,0 -0.69,0 -0.69,0 0,0l15.14 0zm62.77 -42.08c0.83,1.53 1.25,2.36 1.25,2.5 0,0.83 -0.56,1.25 -1.81,1.25 -1.25,0 -2.92,0 -5.28,0.14 -3.75,0.14 -8.19,0.14 -13.33,0.14 -6.25,0 -10.83,0 -13.47,-0.14 -1.81,-0.14 -3.2,-0.28 -4.17,-0.42 -0.97,-0.14 -0.83,-0.83 0.14,-1.94 0.42,-0.42 1.95,-2.92 4.86,-7.5 2.92,-4.58 6.81,-10.83 11.94,-18.89 0.28,-0.42 0.7,-1.11 1.25,-1.94 0.42,-0.7 0.97,-1.11 1.39,-1.11 0.14,0 0.83,0.83 1.94,2.36 1.81,2.92 3.89,6.25 6.11,10.14 2.22,3.89 4.3,7.36 6.25,10.28 -1.95,-2.92 -1.95,-2.92 0,0 1.11,1.94 2.08,3.61 2.92,5.14z"/>
  <path id="_9" class="fil0" d="M1295.3 2004.46c-2.92,-2.64 -6.94,-6.53 -12.08,-11.39 -7.22,-7.22 -14.58,-14.44 -22.22,-21.8 -7.64,-7.22 -15.14,-14.3 -22.36,-21.25l-13.05 0c-3.47,0 -6.53,0 -9.17,0.14 -2.64,0.14 -3.89,0.28 -4.03,0.42 -0.14,0.14 -0.14,2.22 -0.14,6.25 -0.14,5.69 -0.14,11.94 -0.14,18.75 -0.14,6.8 -0.14,13.61 -0.14,20.14l0 44.58c8.47,0.14 16.94,0.28 25.55,0.42 0,-1.53 0,-3.89 0,-7.36 -0.14,-3.47 -0.14,-7.36 -0.28,-11.8 -0.14,-4.3 -0.14,-8.75 -0.14,-13.33 -0.14,-4.58 -0.14,-8.75 0,-12.64 0,-3.89 0,-7.08 0.14,-9.44 0,-2.36 0.14,-3.61 0.28,-3.61 0.42,0 0.83,0.28 1.53,0.97 0.69,0.69 1.11,1.25 1.39,1.53 0.97,0.97 2.22,2.22 3.89,3.75 1.53,1.53 2.92,2.92 4.17,3.89 1.25,1.11 2.92,2.5 4.86,4.3 1.8,1.81 3.75,3.61 5.69,5.42 1.81,1.81 3.47,3.47 4.86,4.72 5.56,5.56 11.39,11.11 17.36,16.8 5.97,5.69 11.8,11.25 17.5,16.66l26.8 0c0.14,-13.47 0.28,-27.5 0.42,-41.94 0.14,-14.44 0.28,-28.33 0.42,-41.52 0,-4.03 0,-6.11 -0.14,-6.25 -0.14,0 -1.39,0 -3.89,-0.14 -3.19,-0.14 -6.8,-0.14 -10.69,-0.28 -4.03,-0.14 -7.78,-0.14 -11.25,-0.14l-0.14 28.47c0,4.86 0,9.86 -0.14,15 -0.14,5.14 -0.28,10 -0.28,14.3 0,-4.31 0,-4.31 0,0 -0.14,0.28 -1.67,-0.97 -4.58,-3.61z"/>
  <path id="_10" class="fil0" d="M1344.04 2040.29l73.6 0c6.11,0 11.11,0 14.86,-0.14 3.33,0 6.25,0 8.89,-0.14 2.5,0 5,-0.28 7.36,-0.83 5.97,-1.53 10.42,-4.44 13.61,-8.47 3.2,-4.03 4.86,-9.72 5.28,-16.94 0.14,-5.42 0.28,-11.39 0.28,-17.91 0,-6.53 -0.14,-12.5 -0.28,-17.91 -0.28,-4.58 -0.97,-8.33 -2.08,-11.11 -1.11,-2.64 -3.06,-5.28 -5.69,-7.78 -2.36,-1.94 -4.86,-3.61 -7.78,-5 -2.92,-1.39 -6.39,-2.22 -10.28,-2.64 -3.61,-0.28 -7.22,-0.42 -10.69,-0.42 -3.47,0 -7.78,0 -12.64,-0.14 -7.5,0 -15.42,0 -23.89,-0.14 -8.47,0 -17.08,0 -25.69,-0.14 -8.61,0 -16.8,0 -24.58,0l-0.14 34.86 0 18.89c0,4.44 0,9.03 0,13.61 -0.14,4.58 -0.14,8.75 -0.14,12.36 0,-3.61 0,-3.61 0,0l0 10zm97.21 -54.58c0,2.92 0,5.56 0,7.92 0,3.61 0,7.22 -0.14,10.83 -0.14,3.61 -0.55,6.81 -1.25,9.58 -0.83,2.92 -2.36,4.86 -4.44,6.11 -0.42,0.28 -3.06,0.55 -7.92,0.69 -2.78,0.14 -6.39,0.14 -10.69,0.28 -4.31,0.14 -9.03,0.14 -13.89,0.14 -5,0.14 -9.86,0.14 -14.44,0.14 -4.58,0.14 -8.61,0.14 -11.94,0.14 -2.92,0 -4.44,0 -4.58,-0.14 -0.14,-0.14 -0.28,-0.97 -0.42,-2.5 -0.14,-3.47 -0.28,-7.08 -0.28,-10.55 0,-3.47 0,-7.64 0,-12.5l0 -25.28 30.41 0c5.69,0 10.69,0 14.72,0 4.03,0 8.05,0 12.36,0.14 6.67,0.14 10.69,2.92 11.94,8.33 -1.25,-5.42 -1.25,-5.42 0,0 0.42,1.67 0.56,3.89 0.56,6.67z"/>
  <path id="_11" class="fil0" d="M1518.46 2040.29l73.6 0c6.11,0 11.11,0 14.86,-0.14 3.33,0 6.25,0 8.89,-0.14 2.5,0 5,-0.28 7.36,-0.83 5.97,-1.53 10.42,-4.44 13.61,-8.47 3.2,-4.03 4.86,-9.72 5.28,-16.94 0.14,-5.42 0.28,-11.39 0.28,-17.91 0,-6.53 -0.14,-12.5 -0.28,-17.91 -0.28,-4.58 -0.97,-8.33 -2.08,-11.11 -1.11,-2.64 -3.06,-5.28 -5.69,-7.78 -2.36,-1.94 -4.86,-3.61 -7.78,-5 -2.92,-1.39 -6.39,-2.22 -10.28,-2.64 -3.61,-0.28 -7.22,-0.42 -10.69,-0.42 -3.47,0 -7.78,0 -12.64,-0.14 -7.5,0 -15.42,0 -23.89,-0.14 -8.47,0 -17.08,0 -25.69,-0.14 -8.61,0 -16.8,0 -24.58,0l-0.14 34.86 0 18.89c0,4.44 0,9.03 0,13.61 -0.14,4.58 -0.14,8.75 -0.14,12.36 0,-3.61 0,-3.61 0,0l0 10zm97.21 -54.58c0,2.92 0,5.56 0,7.92 0,3.61 0,7.22 -0.14,10.83 -0.14,3.61 -0.55,6.81 -1.25,9.58 -0.83,2.92 -2.36,4.86 -4.44,6.11 -0.42,0.28 -3.06,0.55 -7.92,0.69 -2.78,0.14 -6.39,0.14 -10.69,0.28 -4.31,0.14 -9.03,0.14 -13.89,0.14 -5,0.14 -9.86,0.14 -14.44,0.14 -4.58,0.14 -8.61,0.14 -11.94,0.14 -2.92,0 -4.44,0 -4.58,-0.14 -0.14,-0.14 -0.28,-0.97 -0.42,-2.5 -0.14,-3.47 -0.28,-7.08 -0.28,-10.55 0,-3.47 0,-7.64 0,-12.5l0 -25.28 30.41 0c5.69,0 10.69,0 14.72,0 4.03,0 8.05,0 12.36,0.14 6.67,0.14 10.69,2.92 11.94,8.33 -1.25,-5.42 -1.25,-5.42 0,0 0.42,1.67 0.56,3.89 0.56,6.67z"/>
  <path id="_12" class="fil0" d="M1755.24 2002.38l0 -14.3c0,-1.67 0,-2.5 -0.14,-2.64 -10.97,-0.14 -22.36,-0.28 -33.89,-0.42 -11.67,-0.14 -23.19,-0.14 -34.44,-0.28l-0.28 -14.72 79.3 0c0.14,-3.2 0.42,-6.39 0.69,-9.86 0.14,-3.33 0.42,-6.53 0.7,-9.58l-108.18 0c0.14,15 0.14,30 0.28,44.86 0.14,15 0.28,30 0.42,44.85 18.61,0 37.22,0 55.69,0.14 18.47,0.14 37.08,0.14 55.55,0.28l0 -4.03c0,-2.5 0.14,-5.14 0.28,-7.78 0.14,-2.64 0.42,-5.28 0.56,-7.64 -28.05,-0.14 -56.1,-0.14 -84.3,-0.28 0,-3.06 0,-6.11 -0.14,-9.03 -0.14,-2.92 -0.14,-5.97 -0.28,-8.89l48.6 0c3.33,0 6.53,0 9.58,-0.14 2.92,-0.14 5.69,-0.14 8.06,-0.14 -2.36,0 -2.36,0 0,0l1.94 -0.42z"/>
  <path id="_13" class="fil0" d="M1783.43 2040.57l27.08 0c0.14,-3.75 0.42,-7.92 0.56,-12.22 0.14,-4.31 0.28,-8.47 0.28,-12.5l0 -7.08 31.25 0c9.58,0 17.36,0 23.19,-0.14 5.83,-0.14 8.89,-0.28 9.3,-0.55 0.28,-0.14 0.83,-0.83 1.53,-2.08 0.97,-1.81 2.08,-3.89 3.19,-6.53 1.11,-2.5 1.94,-4.86 2.5,-7.08 0.28,-0.97 0.14,-1.53 -0.42,-1.67 -0.56,-0.14 -1.39,-0.14 -2.5,-0.28 -0.69,-0.14 -2.64,-0.14 -6.11,-0.28 -4.31,0 -9.17,0 -14.3,-0.14 -5.28,0 -10.42,0 -15.28,0l-32.36 0 0.28 -19.72c27.36,-0.14 54.72,-0.14 82.07,-0.28 0.14,-2.22 0.42,-4.72 0.55,-7.36 0.14,-2.64 0.28,-5.14 0.28,-7.5l0 -4.58 -76.8 0c-5.14,0 -10.28,0 -15.28,0 -5.14,0.14 -9.86,0.14 -14.3,0.14l-4.31 0c-0.14,0.14 -0.14,2.22 -0.14,6.25 0,5.69 0,11.94 0,18.75 -0.14,6.81 -0.14,13.47 -0.14,20 0,-6.53 0,-6.53 0,0l-0.14 44.86z"/>
  <path id="_14" class="fil0" d="M2002.43 2002.38l0 -14.3c0,-1.67 0,-2.5 -0.14,-2.64 -10.97,-0.14 -22.36,-0.28 -33.89,-0.42 -11.67,-0.14 -23.19,-0.14 -34.44,-0.28l-0.28 -14.72 79.3 0c0.14,-3.2 0.42,-6.39 0.69,-9.86 0.14,-3.33 0.42,-6.53 0.7,-9.58l-108.18 0c0.14,15 0.14,30 0.28,44.86 0.14,15 0.28,30 0.42,44.85 18.61,0 37.22,0 55.69,0.14 18.47,0.14 37.08,0.14 55.55,0.28l0 -4.03c0,-2.5 0.14,-5.14 0.28,-7.78 0.14,-2.64 0.42,-5.28 0.56,-7.64 -28.05,-0.14 -56.1,-0.14 -84.3,-0.28 0,-3.06 0,-6.11 -0.14,-9.03 -0.14,-2.92 -0.14,-5.97 -0.28,-8.89l48.6 0c3.33,0 6.53,0 9.58,-0.14 2.92,-0.14 5.69,-0.14 8.06,-0.14 -2.36,0 -2.36,0 0,0l1.94 -0.42z"/>
  <path id="_15" class="fil0" d="M2113.94 2004.46c-2.92,-2.64 -6.94,-6.53 -12.08,-11.39 -7.22,-7.22 -14.58,-14.44 -22.22,-21.8 -7.64,-7.22 -15.14,-14.3 -22.36,-21.25l-13.05 0c-3.47,0 -6.53,0 -9.17,0.14 -2.64,0.14 -3.89,0.28 -4.03,0.42 -0.14,0.14 -0.14,2.22 -0.14,6.25 -0.14,5.69 -0.14,11.94 -0.14,18.75 -0.14,6.8 -0.14,13.61 -0.14,20.14l0 44.58c8.47,0.14 16.94,0.28 25.55,0.42 0,-1.53 0,-3.89 0,-7.36 -0.14,-3.47 -0.14,-7.36 -0.28,-11.8 -0.14,-4.3 -0.14,-8.75 -0.14,-13.33 -0.14,-4.58 -0.14,-8.75 0,-12.64 0,-3.89 0,-7.08 0.14,-9.44 0,-2.36 0.14,-3.61 0.28,-3.61 0.42,0 0.83,0.28 1.53,0.97 0.69,0.69 1.11,1.25 1.39,1.53 0.97,0.97 2.22,2.22 3.89,3.75 1.53,1.53 2.92,2.92 4.17,3.89 1.25,1.11 2.92,2.5 4.86,4.3 1.8,1.81 3.75,3.61 5.69,5.42 1.81,1.81 3.47,3.47 4.86,4.72 5.56,5.56 11.39,11.11 17.36,16.8 5.97,5.69 11.8,11.25 17.5,16.66l26.8 0c0.14,-13.47 0.28,-27.5 0.42,-41.94 0.14,-14.44 0.28,-28.33 0.42,-41.52 0,-4.03 0,-6.11 -0.14,-6.25 -0.14,0 -1.39,0 -3.89,-0.14 -3.19,-0.14 -6.8,-0.14 -10.69,-0.28 -4.03,-0.14 -7.78,-0.14 -11.25,-0.14l-0.14 28.47c0,4.86 0,9.86 -0.14,15 -0.14,5.14 -0.28,10 -0.28,14.3 0,-4.31 0,-4.31 0,0 -0.14,0.28 -1.67,-0.97 -4.58,-3.61z"/>
  <path id="_16" class="fil0" d="M2239.21 2021.27c-6.53,0 -12.78,0 -18.89,-0.14 -6.11,0 -11.8,0 -17.22,-0.14 -3.61,-0.14 -5.69,-0.14 -6.11,-0.28 -1.25,-0.42 -2.5,-1.11 -3.75,-2.22 -1.67,-1.53 -2.78,-3.06 -3.2,-4.58 -0.55,-1.53 -0.83,-3.89 -0.83,-7.08 -0.14,-2.5 -0.14,-6.11 -0.28,-10.83l0 -9.86c0,-2.36 0,-4.03 0.14,-5.28 0,-2.08 0.55,-3.89 1.53,-5.28 0.97,-1.25 2.22,-2.36 3.75,-3.33 0.97,-0.7 1.67,-1.11 2.36,-1.39 0.56,-0.28 1.53,-0.42 3.06,-0.56 6.81,-0.42 14.3,-0.69 22.22,-0.83 7.92,0 15.69,0 23.33,0 5,0 10.14,-0.14 15.41,-0.28 5.28,-0.14 10.14,-0.14 14.44,-0.14 0.14,-0.14 0.56,-0.69 0.97,-1.94 0.69,-1.81 1.39,-4.03 2.08,-6.39 0.69,-2.36 1.53,-4.44 2.22,-6.25 0.28,-0.56 0.55,-1.25 0.97,-1.94 0.42,-0.7 0.56,-1.25 0.56,-1.67 0,-0.14 -1.53,-0.14 -4.72,-0.14 -3.19,0 -7.5,0 -12.78,-0.14 -10.97,-0.14 -22.36,-0.14 -34.3,0 -12.08,0.14 -23.47,0.28 -34.16,0.42 -5.69,0.14 -10.28,0.56 -13.89,1.39 -3.61,0.97 -7.08,2.64 -10.28,5.14 -3.61,2.92 -6.11,6.11 -7.36,9.86 -1.39,3.75 -2.22,8.75 -2.36,15.14 -0.14,4.31 -0.14,10.42 0,18.05 0.14,4.44 0.14,8.05 0.14,10.97 0,2.92 0.14,5.83 0.56,8.89 0.69,5.42 2.64,9.44 5.83,12.08 3.05,2.64 7.08,4.86 11.94,6.39 0.69,0.28 1.67,0.42 2.64,0.55 1.8,0.28 3.47,0.42 5.28,0.56 1.81,0.14 3.89,0.14 6.53,0.14 7.36,0.14 15.41,0.28 24.03,0.42 8.61,0.14 17.22,0.14 25.97,0.28 8.61,0.14 16.8,0.14 24.44,0.14l7.36 0 2.5 -0.42 0.28 -9.44 0 -6.67c0,-1.8 0,-2.78 -0.14,-2.92 0,-0.14 -0.83,-0.14 -2.5,-0.28 -1.67,0 -3.75,0 -6.11,0 -2.36,0 -4.72,0 -6.81,0 -2.08,0 -3.75,0 -4.72,0 0.97,0 0.97,0 0,0l-20.14 0z"/>
  <path id="_17" class="fil0" d="M2389.74 2002.38l0 -14.3c0,-1.67 0,-2.5 -0.14,-2.64 -10.97,-0.14 -22.36,-0.28 -33.89,-0.42 -11.67,-0.14 -23.19,-0.14 -34.44,-0.28l-0.28 -14.72 79.3 0c0.14,-3.2 0.42,-6.39 0.69,-9.86 0.14,-3.33 0.42,-6.53 0.7,-9.58l-108.18 0c0.14,15 0.14,30 0.28,44.86 0.14,15 0.28,30 0.42,44.85 18.61,0 37.22,0 55.69,0.14 18.47,0.14 37.08,0.14 55.55,0.28l0 -4.03c0,-2.5 0.14,-5.14 0.28,-7.78 0.14,-2.64 0.42,-5.28 0.56,-7.64 -28.05,-0.14 -56.1,-0.14 -84.3,-0.28 0,-3.06 0,-6.11 -0.14,-9.03 -0.14,-2.92 -0.14,-5.97 -0.28,-8.89l48.6 0c3.33,0 6.53,0 9.58,-0.14 2.92,-0.14 5.69,-0.14 8.06,-0.14 -2.36,0 -2.36,0 0,0l1.94 -0.42z"/>
  <path id="_18" class="fil0" d="M586.36 2084.87c-6.81,0.14 -13.33,0.14 -19.86,0.14l-53.33 0.14 0 20 44.44 0 0 70.13c8.75,-0.14 17.5,-0.28 26.53,-0.42 -0.14,-11.8 -0.14,-23.47 -0.28,-35.27 -0.14,-11.67 -0.14,-23.33 -0.28,-35.13 14.58,0.42 29.3,0.69 44.02,0.97l0 -2.92c0,-2.78 0.14,-5.83 0.28,-9.03 0.14,-3.19 0.42,-6.11 0.56,-8.89l-4.31 0.14c-2.64,0 -5.56,0 -8.61,0 -3.2,0.14 -6.53,0.14 -10.14,0.14 3.61,0 3.61,0 0,0 -5.97,0 -12.36,0 -19.02,0z"/>
  <path id="_19" class="fil0" d="M736.34 2136.94l0 -14.3c0,-1.67 0,-2.5 -0.14,-2.64 -10.97,-0.14 -22.36,-0.28 -33.89,-0.42 -11.67,-0.14 -23.19,-0.14 -34.44,-0.28l-0.28 -14.72 79.3 0c0.14,-3.2 0.42,-6.39 0.69,-9.86 0.14,-3.33 0.42,-6.53 0.7,-9.58l-108.18 0c0.14,15 0.14,30 0.28,44.86 0.14,15 0.28,30 0.42,44.85 18.61,0 37.22,0 55.69,0.14 18.47,0.14 37.08,0.14 55.55,0.28l0 -4.03c0,-2.5 0.14,-5.14 0.28,-7.78 0.14,-2.64 0.42,-5.28 0.56,-7.64 -28.05,-0.14 -56.1,-0.14 -84.3,-0.28 0,-3.06 0,-6.11 -0.14,-9.03 -0.14,-2.92 -0.14,-5.97 -0.28,-8.89l48.6 0c3.33,0 6.53,0 9.58,-0.14 2.92,-0.14 5.69,-0.14 8.06,-0.14 -2.36,0 -2.36,0 0,0l1.94 -0.42z"/>
  <path id="_20" class="fil0" d="M841.88 2155.83c-6.53,0 -12.78,0 -18.89,-0.14 -6.11,0 -11.8,0 -17.22,-0.14 -3.61,-0.14 -5.69,-0.14 -6.11,-0.28 -1.25,-0.42 -2.5,-1.11 -3.75,-2.22 -1.67,-1.53 -2.78,-3.06 -3.2,-4.58 -0.55,-1.53 -0.83,-3.89 -0.83,-7.08 -0.14,-2.5 -0.14,-6.11 -0.28,-10.83l0 -9.86c0,-2.36 0,-4.03 0.14,-5.28 0,-2.08 0.55,-3.89 1.53,-5.28 0.97,-1.25 2.22,-2.36 3.75,-3.33 0.97,-0.7 1.67,-1.11 2.36,-1.39 0.56,-0.28 1.53,-0.42 3.06,-0.56 6.81,-0.42 14.3,-0.69 22.22,-0.83 7.92,0 15.69,0 23.33,0 5,0 10.14,-0.14 15.41,-0.28 5.28,-0.14 10.14,-0.14 14.44,-0.14 0.14,-0.14 0.56,-0.69 0.97,-1.94 0.69,-1.81 1.39,-4.03 2.08,-6.39 0.69,-2.36 1.53,-4.44 2.22,-6.25 0.28,-0.56 0.55,-1.25 0.97,-1.94 0.42,-0.7 0.56,-1.25 0.56,-1.67 0,-0.14 -1.53,-0.14 -4.72,-0.14 -3.19,0 -7.5,0 -12.78,-0.14 -10.97,-0.14 -22.36,-0.14 -34.3,0 -12.08,0.14 -23.47,0.28 -34.16,0.42 -5.69,0.14 -10.28,0.56 -13.89,1.39 -3.61,0.97 -7.08,2.64 -10.28,5.14 -3.61,2.92 -6.11,6.11 -7.36,9.86 -1.39,3.75 -2.22,8.75 -2.36,15.14 -0.14,4.31 -0.14,10.42 0,18.05 0.14,4.44 0.14,8.05 0.14,10.97 0,2.92 0.14,5.83 0.56,8.89 0.69,5.42 2.64,9.44 5.83,12.08 3.05,2.64 7.08,4.86 11.94,6.39 0.69,0.28 1.67,0.42 2.64,0.55 1.8,0.28 3.47,0.42 5.28,0.56 1.81,0.14 3.89,0.14 6.53,0.14 7.36,0.14 15.41,0.28 24.03,0.42 8.61,0.14 17.22,0.14 25.97,0.28 8.61,0.14 16.8,0.14 24.44,0.14l7.36 0 2.5 -0.42 0.28 -9.44 0 -6.67c0,-1.8 0,-2.78 -0.14,-2.92 0,-0.14 -0.83,-0.14 -2.5,-0.28 -1.67,0 -3.75,0 -6.11,0 -2.36,0 -4.72,0 -6.81,0 -2.08,0 -3.75,0 -4.72,0 0.97,0 0.97,0 0,0l-20.14 0z"/>
  <path id="_21" class="fil0" d="M896.18 2085.28l0 89.85 26.25 0 0 -15.41c0,-3.61 0,-7.5 0.14,-11.53 0.14,-4.03 0.28,-7.36 0.69,-9.86l69.85 0 0 36.8 26.66 0c0.14,-10.69 0.42,-21.8 0.55,-33.05 0.14,-11.25 0.28,-22.36 0.28,-33.47l0 -23.33 -3.33 -0.28c-1.53,-0.42 -3.61,-0.56 -6.53,-0.56 -2.92,0.14 -5.28,0.14 -7.22,0.14l-10.42 0 0 33.47c-5.97,0.14 -12.5,0.14 -19.44,0.28 -7.08,0.14 -14.03,0.14 -20.83,0.14 -6.94,0.14 -13.33,0.14 -19.02,0 -6.53,0 -9.86,-0.14 -10.28,-0.28 -0.69,-0.28 -0.97,-0.97 -0.97,-2.22 0,-1.11 0,-2.36 0,-3.89 -0.14,-2.36 -0.14,-5.97 -0.14,-10.97l0 -16.66c-3.75,0.14 -7.78,0.14 -11.94,0.28 -4.31,0.14 -8.19,0.28 -11.67,0.28 3.47,0 3.47,0 0,0l-2.64 0.28z"/>
  <path id="_22" class="fil0" d="M1121.85 2139.03c-2.92,-2.64 -6.94,-6.53 -12.08,-11.39 -7.22,-7.22 -14.58,-14.44 -22.22,-21.8 -7.64,-7.22 -15.14,-14.3 -22.36,-21.25l-13.05 0c-3.47,0 -6.53,0 -9.17,0.14 -2.64,0.14 -3.89,0.28 -4.03,0.42 -0.14,0.14 -0.14,2.22 -0.14,6.25 -0.14,5.69 -0.14,11.94 -0.14,18.75 -0.14,6.8 -0.14,13.61 -0.14,20.14l0 44.58c8.47,0.14 16.94,0.28 25.55,0.42 0,-1.53 0,-3.89 0,-7.36 -0.14,-3.47 -0.14,-7.36 -0.28,-11.8 -0.14,-4.3 -0.14,-8.75 -0.14,-13.33 -0.14,-4.58 -0.14,-8.75 0,-12.64 0,-3.89 0,-7.08 0.14,-9.44 0,-2.36 0.14,-3.61 0.28,-3.61 0.42,0 0.83,0.28 1.53,0.97 0.69,0.69 1.11,1.25 1.39,1.53 0.97,0.97 2.22,2.22 3.89,3.75 1.53,1.53 2.92,2.92 4.17,3.89 1.25,1.11 2.92,2.5 4.86,4.3 1.8,1.81 3.75,3.61 5.69,5.42 1.81,1.81 3.47,3.47 4.86,4.72 5.56,5.56 11.39,11.11 17.36,16.8 5.97,5.69 11.8,11.25 17.5,16.66l26.8 0c0.14,-13.47 0.28,-27.5 0.42,-41.94 0.14,-14.44 0.28,-28.33 0.42,-41.52 0,-4.03 0,-6.11 -0.14,-6.25 -0.14,0 -1.39,0 -3.89,-0.14 -3.19,-0.14 -6.8,-0.14 -10.69,-0.28 -4.03,-0.14 -7.78,-0.14 -11.25,-0.14l-0.14 28.47c0,4.86 0,9.86 -0.14,15 -0.14,5.14 -0.28,10 -0.28,14.3 0,-4.31 0,-4.31 0,0 -0.14,0.28 -1.67,-0.97 -4.58,-3.61z"/>
  <path id="_23" class="fil0" d="M1185.31 2088.2c-2.64,1.25 -5.14,3.06 -7.64,5.69 -2.08,1.95 -3.61,3.89 -4.72,5.83 -1.11,2.08 -1.8,4.72 -2.22,8.06 -0.28,4.03 -0.42,8.61 -0.42,13.75 -0.14,5.14 -0.14,9.86 -0.14,14.44 0,2.92 0,5.83 0,8.89 0,3.06 0.14,5.69 0.56,7.78 0.83,6.11 3.05,10.83 6.53,14.03 3.47,3.33 8.06,5.83 13.89,7.36 3.19,0.97 6.25,1.39 9.17,1.25 2.92,0 6.8,0 11.39,0l20.69 0c11.11,0 20.27,-0.14 27.5,-0.28 7.22,-0.14 11.53,-0.28 12.78,-0.56 2.64,-0.42 5.56,-1.39 8.61,-2.92 3.05,-1.39 5.42,-2.92 6.94,-4.44 1.67,-1.53 3.19,-3.75 4.44,-6.53 1.25,-2.64 2.08,-5.42 2.5,-8.19 0.42,-3.89 0.56,-8.33 0.56,-13.19 0,-4.86 0,-9.58 0,-14.03 0,-3.75 0,-7.22 -0.14,-10.28 -0.14,-5.14 -0.83,-9.3 -1.8,-12.64 -1.11,-3.33 -3.2,-6.39 -6.11,-9.17 -1.8,-1.8 -3.89,-3.47 -5.97,-4.72 -2.08,-1.25 -4.72,-2.08 -7.92,-2.5 -3.06,-0.42 -6.11,-0.56 -9.17,-0.56 -3.2,0 -6.81,0 -10.83,0l-19.58 0c-6.39,0 -12.92,0 -19.72,0.14 -6.81,0.14 -13.05,0.14 -18.75,0.14 5.69,0 5.69,0 0,0 -4.31,0.7 -7.78,1.53 -10.42,2.64zm84.16 40.69c0,2.36 0,4.58 -0.14,6.8 -0.14,2.22 -0.14,4.03 -0.28,5.56 -0.28,2.92 -0.42,5 -0.56,6.11 -0.14,1.25 -0.69,2.64 -1.8,4.17 -0.83,1.25 -1.67,2.08 -2.36,2.78 -0.69,0.69 -2.08,1.11 -3.89,1.25 -1.81,0.28 -4.86,0.42 -9.03,0.42 -4.3,0.14 -10.28,0.14 -18.19,0.14l-15.83 0c-3.89,0 -6.81,0 -8.61,-0.14 -3.19,-0.14 -5.55,-0.7 -7.08,-1.53 -1.53,-0.83 -2.64,-2.22 -3.33,-4.03 -0.69,-1.81 -1.11,-4.31 -1.39,-7.5 -0.42,-2.36 -0.56,-5.14 -0.56,-8.33 0,-3.19 0,-6.11 0.14,-9.03 0.14,-2.36 0.14,-5 0.28,-7.64 0.14,-2.64 0.42,-4.86 0.83,-6.53 0.42,-1.25 1.11,-2.5 2.36,-3.75 1.25,-1.25 2.36,-2.08 3.61,-2.5 0.42,-0.14 1.94,-0.14 4.86,-0.28 3.75,0 7.92,0 12.5,-0.14 4.44,0 8.89,0 13.19,0 7.08,0.14 12.64,0.14 16.66,0.14 4.03,0 6.94,0 8.75,0.14 1.39,0.14 2.5,0.14 3.19,0.28 0.69,0.14 1.39,0.42 2.08,0.97 2.36,1.53 3.61,3.75 4.03,6.39 0.28,2.78 0.42,6.25 0.56,10.42 -0.14,-4.17 -0.14,-4.17 0,0 0,1.67 0,3.61 0,5.83z"/>
  <path id="_24" class="fil0" d="M1415.56 2175.14l0 -3.89c0,-2.64 0.14,-5.42 0.28,-8.33 0.14,-2.78 0.42,-5.42 0.55,-7.92l-37.08 0.42c-5.42,0 -10.97,0 -16.66,0 -5.69,0.14 -10.97,0.14 -15.83,0 -3.47,0 -5.42,0 -5.56,-0.14 -0.14,-0.14 -0.14,-1.25 -0.28,-3.61 -0.42,-4.86 -0.56,-9.72 -0.56,-14.72 0,-4.86 0,-10.55 0,-17.08l-0.14 -35 -27.22 -0.28 0 90.54 102.49 0z"/>
  <path id="_25" class="fil0" d="M1443.33 2088.2c-2.64,1.25 -5.14,3.06 -7.64,5.69 -2.08,1.95 -3.61,3.89 -4.72,5.83 -1.11,2.08 -1.8,4.72 -2.22,8.06 -0.28,4.03 -0.42,8.61 -0.42,13.75 -0.14,5.14 -0.14,9.86 -0.14,14.44 0,2.92 0,5.83 0,8.89 0,3.06 0.14,5.69 0.56,7.78 0.83,6.11 3.05,10.83 6.53,14.03 3.47,3.33 8.06,5.83 13.89,7.36 3.19,0.97 6.25,1.39 9.17,1.25 2.92,0 6.8,0 11.39,0l20.69 0c11.11,0 20.27,-0.14 27.5,-0.28 7.22,-0.14 11.53,-0.28 12.78,-0.56 2.64,-0.42 5.56,-1.39 8.61,-2.92 3.05,-1.39 5.42,-2.92 6.94,-4.44 1.67,-1.53 3.19,-3.75 4.44,-6.53 1.25,-2.64 2.08,-5.42 2.5,-8.19 0.42,-3.89 0.56,-8.33 0.56,-13.19 0,-4.86 0,-9.58 0,-14.03 0,-3.75 0,-7.22 -0.14,-10.28 -0.14,-5.14 -0.83,-9.3 -1.8,-12.64 -1.11,-3.33 -3.2,-6.39 -6.11,-9.17 -1.8,-1.8 -3.89,-3.47 -5.97,-4.72 -2.08,-1.25 -4.72,-2.08 -7.92,-2.5 -3.06,-0.42 -6.11,-0.56 -9.17,-0.56 -3.2,0 -6.81,0 -10.83,0l-19.58 0c-6.39,0 -12.92,0 -19.72,0.14 -6.81,0.14 -13.05,0.14 -18.75,0.14 5.69,0 5.69,0 0,0 -4.31,0.7 -7.78,1.53 -10.42,2.64zm84.16 40.69c0,2.36 0,4.58 -0.14,6.8 -0.14,2.22 -0.14,4.03 -0.28,5.56 -0.28,2.92 -0.42,5 -0.56,6.11 -0.14,1.25 -0.69,2.64 -1.8,4.17 -0.83,1.25 -1.67,2.08 -2.36,2.78 -0.69,0.69 -2.08,1.11 -3.89,1.25 -1.81,0.28 -4.86,0.42 -9.03,0.42 -4.3,0.14 -10.28,0.14 -18.19,0.14l-15.83 0c-3.89,0 -6.81,0 -8.61,-0.14 -3.19,-0.14 -5.55,-0.7 -7.08,-1.53 -1.53,-0.83 -2.64,-2.22 -3.33,-4.03 -0.69,-1.81 -1.11,-4.31 -1.39,-7.5 -0.42,-2.36 -0.56,-5.14 -0.56,-8.33 0,-3.19 0,-6.11 0.14,-9.03 0.14,-2.36 0.14,-5 0.28,-7.64 0.14,-2.64 0.42,-4.86 0.83,-6.53 0.42,-1.25 1.11,-2.5 2.36,-3.75 1.25,-1.25 2.36,-2.08 3.61,-2.5 0.42,-0.14 1.94,-0.14 4.86,-0.28 3.75,0 7.92,0 12.5,-0.14 4.44,0 8.89,0 13.19,0 7.08,0.14 12.64,0.14 16.66,0.14 4.03,0 6.94,0 8.75,0.14 1.39,0.14 2.5,0.14 3.19,0.28 0.69,0.14 1.39,0.42 2.08,0.97 2.36,1.53 3.61,3.75 4.03,6.39 0.28,2.78 0.42,6.25 0.56,10.42 -0.14,-4.17 -0.14,-4.17 0,0 0,1.67 0,3.61 0,5.83z"/>
  <path id="_26" class="fil0" d="M1619.28 2155.83c-4.17,0 -7.22,0 -9.17,-0.14 -1.94,-0.14 -3.33,-0.28 -4.03,-0.42 -2.22,-0.55 -3.89,-1.67 -5.14,-3.19 -1.25,-1.53 -2.5,-3.33 -3.61,-5.28l-0.28 -16.94 0 -9.86c0,-1.67 0,-3.06 0,-4.31 -0.14,-1.25 0.14,-2.36 0.55,-3.33 0.7,-1.67 1.81,-3.05 3.2,-4.17 1.39,-1.11 2.92,-2.22 4.44,-3.33 5.28,0 10.97,0 17.22,-0.14 6.25,0 12.5,0 18.89,-0.14 6.39,0 12.64,0 18.61,-0.14 5.97,-0.14 11.25,-0.14 15.97,-0.28 7.08,-0.14 10.83,-0.42 10.97,-0.56 0.42,-0.42 0.83,-1.53 1.39,-3.06 0.28,-1.11 0.69,-2.5 1.39,-4.03 0.55,-1.53 1.11,-2.92 1.53,-4.03 0.42,-0.83 0.83,-1.95 1.39,-3.2 0.42,-1.25 0.69,-2.36 0.69,-3.19 0,-0.28 -0.83,-0.56 -2.64,-0.69 -1.8,-0.14 -3.89,-0.14 -6.39,-0.14 -2.64,0 -5,0 -7.36,0 -2.36,0 -4.17,0 -5.42,0l-25 0c-8.19,0 -16.53,0 -25.27,0.14 -8.75,0.14 -16.66,0.14 -23.89,0.14 -5.42,0.42 -10.14,1.81 -14.3,4.31 -4.17,2.64 -7.36,5.83 -9.44,9.86 -1.25,2.22 -1.94,4.58 -2.22,7.22 -0.28,2.64 -0.55,5.69 -0.69,9.44 -0.28,4.86 -0.42,10.28 -0.42,16.25 0,5.97 0.14,11.39 0.42,16.25 0.28,5.14 1.25,9.3 2.78,12.5 1.53,3.33 4.03,5.97 7.22,8.05 3.19,2.08 7.08,3.61 11.8,4.44 4.72,0.83 9.86,1.25 15.55,1.39 5.56,0.14 11.25,0.28 17.08,0.28l39.02 0c6.53,0 12.36,0 17.64,-0.14 2.92,0 5.42,0 7.5,0 2.08,0 4.03,-0.14 5.83,-0.28l0 -47.49 -27.78 0c0,3.75 0,7.64 -0.14,11.8 -0.14,4.17 -0.14,7.92 -0.28,11.39 -0.14,2.78 -0.14,4.31 -0.28,4.44 0,0.14 -0.83,0.14 -2.64,0.28 -1.8,0.14 -4.17,0.14 -6.8,0.14 -2.78,0.14 -5.56,0.14 -8.47,0.14 -2.92,0 -5.42,0 -7.64,0 -2.36,0 -3.89,0 -4.58,0 0.7,0 0.7,0 0,0l-17.22 0z"/>
  <polygon id="_27" class="fil0" points="1736.63,2175.14 1736.63,2085.15 1709.13,2085.15 1709.13,2175.14 "/>
  <path id="_28" class="fil0" d="M1846.89 2136.94l0 -14.3c0,-1.67 0,-2.5 -0.14,-2.64 -10.97,-0.14 -22.36,-0.28 -33.89,-0.42 -11.67,-0.14 -23.19,-0.14 -34.44,-0.28l-0.28 -14.72 79.3 0c0.14,-3.2 0.42,-6.39 0.69,-9.86 0.14,-3.33 0.42,-6.53 0.7,-9.58l-108.18 0c0.14,15 0.14,30 0.28,44.86 0.14,15 0.28,30 0.42,44.85 18.61,0 37.22,0 55.69,0.14 18.47,0.14 37.08,0.14 55.55,0.28l0 -4.03c0,-2.5 0.14,-5.14 0.28,-7.78 0.14,-2.64 0.42,-5.28 0.56,-7.64 -28.05,-0.14 -56.1,-0.14 -84.3,-0.28 0,-3.06 0,-6.11 -0.14,-9.03 -0.14,-2.92 -0.14,-5.97 -0.28,-8.89l48.6 0c3.33,0 6.53,0 9.58,-0.14 2.92,-0.14 5.69,-0.14 8.06,-0.14 -2.36,0 -2.36,0 0,0l1.94 -0.42z"/>
  <path id="_29" class="fil0" d="M1988.96 2104.03c0.28,-0.14 0.56,-0.97 0.69,-2.78 0.14,-1.67 0.14,-4.03 0.14,-7.08l0.28 -9.58 -41.24 0c-7.64,0.14 -15.55,0.14 -23.89,0.28 -8.47,0.14 -16.11,0.28 -23.05,0.28 -8.75,0.7 -15.41,3.75 -20,9.17 -2.78,3.06 -4.58,7.22 -5.42,12.36 -0.97,5.28 -0.56,10.55 0.97,15.83 1.11,3.89 3.75,7.36 8.06,10.28 3.06,2.08 6.11,3.61 9.03,4.44 2.92,0.83 6.67,1.39 11.53,1.53 5.42,0.28 11.25,0.42 17.77,0.56 6.39,0.14 12.78,0.14 19.16,0.14 6.25,0.14 12.08,0.28 17.22,0.56 1.94,0.14 3.19,0.28 3.89,0.42 1.8,0.56 3.05,1.81 3.75,3.75 0.69,1.94 0.83,3.89 0.42,5.97 -0.42,2.08 -1.39,3.61 -2.92,4.58 -0.42,0.14 -1.95,0.28 -4.58,0.42 -2.78,0.14 -7.36,0.28 -13.75,0.28 -6.67,0.14 -14.17,0.14 -22.36,0.14 -8.19,0.14 -16.53,0.14 -24.86,0.14 -8.47,0.14 -16.25,0.14 -23.33,0.14 -0.14,6.39 -0.28,12.91 -0.42,19.44 33.19,-0.14 66.38,-0.28 99.85,-0.42l3.75 -1.39c7.08,-2.64 11.8,-7.22 14.16,-13.61 0.7,-1.94 1.11,-3.61 1.25,-5 0.14,-1.39 0.14,-3.61 0.14,-6.53 0,-2.64 0,-4.72 -0.14,-6.53 -0.14,-1.81 -0.55,-3.47 -1.11,-5.28 -1.67,-4.3 -4.17,-7.78 -7.64,-10.28 -3.47,-2.36 -7.92,-4.03 -13.61,-4.72 -0.97,-0.14 -3.06,-0.28 -6.53,-0.42 -9.44,-0.42 -19.16,-0.69 -29.3,-0.83 -10.14,-0.14 -20,-0.14 -29.72,-0.28l-2.08 -1.94c-2.5,-2.64 -3.33,-5.56 -2.64,-8.89 0.28,-1.67 0.83,-2.78 1.53,-3.33 0.69,-0.42 2.22,-0.83 4.3,-0.97 5.14,-0.42 10.83,-0.69 16.8,-0.83 5.97,-0.14 12.08,-0.14 18.33,-0.14 6.11,0 12.08,0 17.78,0 4.03,0 8.05,0 12.22,0 4.17,0.14 8.06,0.14 11.67,0.14 -3.61,0 -3.61,0 0,0l3.89 0z"/>
 </g>
</svg>
